<svg width="240" height="288" viewBox="0 0 240 288" fill="none" xmlns="http://www.w3.org/2000/svg">
<path d="M237 117.5C237 180.184 186.184 231 123.5 231M237 117.5C237 54.8157 186.184 4 123.5 4M237 117.5H10M123.5 231C60.8157 231 10 180.184 10 117.5M123.5 231V4M10 117.5C10 54.8157 60.8157 4 123.5 4" stroke="#0D6EFD" stroke-width="6"/>
<path d="M216.001 51.9998C201.5 59.5 163.5 77.4999 122.5 77.4999C85.0172 77.4999 26.5008 51.9998 31.5008 51.9998C41.5008 26.9998 92.0008 0.999897 122.501 3.49983C154.001 -0.500103 209 33.5 216.001 51.9998Z" stroke="#0D6EFD" stroke-width="6"/>
<path d="M31 182.5C45.5009 175 83.5009 157 124.5 157C161.984 157 220.5 182.5 215.5 182.5C205.5 207.5 155 233.5 124.5 231C93.0001 235 38.0009 201 31 182.5Z" stroke="#0D6EFD" stroke-width="6"/>
<ellipse cx="124" cy="117" rx="70" ry="114" stroke="#0D6EFD" stroke-width="6"/>
<path d="M93.0795 149.121C93.0795 149.121 106.436 137.062 100.712 130.277C94.9876 123.492 73.9989 130.277 60.6424 172.489C47.2858 214.7 27.252 275.918 13.8953 275C0.53862 274.081 8.17103 258.417 8.17103 258.417" stroke="#0D6EFD" stroke-width="12"/>
<path d="M29.1598 171.734H95.9421" stroke="#0D6EFD" stroke-width="12" stroke-linecap="round"/>
<path d="M91.1719 151.382L95.9421 146.105" stroke="#0D6EFD" stroke-width="12" stroke-linecap="round"/>
<path d="M7.21703 261.432L8.17103 258.417L9.12474 256.402" stroke="#0D6EFD" stroke-width="12" stroke-linecap="round"/>
<path d="M93.0795 149.121C93.0795 149.121 106.436 137.062 100.712 130.277C94.9876 123.492 73.9989 130.277 60.6424 172.489C47.2858 214.7 27.252 275.918 13.8953 275C0.53862 274.081 8.17103 258.417 8.17103 258.417" stroke="white" stroke-width="6"/>
<path d="M29.1598 171.734H95.9421" stroke="white" stroke-width="6" stroke-linecap="round"/>
<path d="M91.1719 151.382L95.9421 146.105" stroke="white" stroke-width="6" stroke-linecap="round"/>
<path d="M7.21703 261.432L8.17103 258.417L9.12474 256.402" stroke="white" stroke-width="6" stroke-linecap="round"/>
<mask id="path-13-inside-1_4_80" fill="white">
<path d="M53.5942 273.935V261.037C53.5942 260.1 53.4478 259.345 53.1548 258.774C52.8765 258.203 52.4517 257.785 51.8804 257.521C51.3237 257.258 50.6206 257.126 49.771 257.126C48.9507 257.126 48.2402 257.294 47.6396 257.631C47.0537 257.968 46.5996 258.415 46.2773 258.972C45.9697 259.528 45.8159 260.144 45.8159 260.817H41.9268C41.9268 259.968 42.1099 259.125 42.4761 258.291C42.8569 257.456 43.3989 256.701 44.1021 256.027C44.8052 255.339 45.6475 254.797 46.6289 254.401C47.625 253.991 48.7383 253.786 49.9688 253.786C51.4336 253.786 52.73 254.028 53.8579 254.511C54.9858 254.98 55.8721 255.749 56.5166 256.818C57.1611 257.888 57.4834 259.309 57.4834 261.081V272.814C57.4834 273.605 57.542 274.448 57.6592 275.341C57.791 276.235 57.9741 277.004 58.2085 277.648V278H54.1875C53.9971 277.531 53.8506 276.909 53.748 276.132C53.6455 275.341 53.5942 274.609 53.5942 273.935ZM54.2095 263.586L54.2534 266.442H51.5508C50.6279 266.442 49.7856 266.545 49.0239 266.75C48.2769 266.955 47.6323 267.255 47.0903 267.651C46.5483 268.032 46.1309 268.508 45.8379 269.079C45.5596 269.65 45.4204 270.302 45.4204 271.035C45.4204 271.987 45.5522 272.749 45.8159 273.32C46.0796 273.876 46.4751 274.279 47.0024 274.528C47.5298 274.777 48.1963 274.902 49.002 274.902C49.9834 274.902 50.8477 274.675 51.5947 274.221C52.3418 273.767 52.9204 273.217 53.3306 272.573C53.7554 271.928 53.9531 271.328 53.9238 270.771L54.7808 272.595C54.7222 273.166 54.5317 273.789 54.2095 274.462C53.9019 275.122 53.4697 275.759 52.9131 276.374C52.3564 276.975 51.6973 277.473 50.9355 277.868C50.1885 278.249 49.3462 278.439 48.4087 278.439C47.0317 278.439 45.8232 278.176 44.7832 277.648C43.7578 277.121 42.9595 276.345 42.3882 275.319C41.8169 274.294 41.5312 273.027 41.5312 271.518C41.5312 270.375 41.729 269.321 42.1245 268.354C42.52 267.387 43.106 266.552 43.8823 265.849C44.6587 265.131 45.6328 264.575 46.8047 264.179C47.9912 263.784 49.3608 263.586 50.9136 263.586H54.2095ZM67.7666 254.226V278H63.8774V254.226H67.7666ZM80.8403 254.226L71.2822 267.849H66.4702L65.855 264.289H69.7002L76.1821 254.226H80.8403ZM76.5337 278L69.5684 267.233L72.0513 264.289L81.4116 278H76.5337ZM93.6943 254.226V278H89.8052V254.226H93.6943ZM100.176 254.226V257.521H83.4111V254.226H100.176ZM102.571 267.255V264.992C102.571 263.146 102.806 261.528 103.274 260.136C103.743 258.73 104.395 257.558 105.23 256.621C106.065 255.683 107.039 254.98 108.152 254.511C109.266 254.028 110.459 253.786 111.734 253.786C113.038 253.786 114.246 254.028 115.359 254.511C116.473 254.98 117.447 255.683 118.282 256.621C119.131 257.558 119.791 258.73 120.259 260.136C120.728 261.528 120.962 263.146 120.962 264.992V267.255C120.962 269.101 120.728 270.727 120.259 272.133C119.791 273.525 119.139 274.689 118.304 275.627C117.469 276.564 116.495 277.268 115.381 277.736C114.268 278.205 113.067 278.439 111.778 278.439C110.489 278.439 109.288 278.205 108.174 277.736C107.061 277.268 106.08 276.564 105.23 275.627C104.395 274.689 103.743 273.525 103.274 272.133C102.806 270.727 102.571 269.101 102.571 267.255ZM106.46 264.992V267.255C106.46 268.559 106.592 269.702 106.856 270.683C107.12 271.665 107.493 272.485 107.977 273.144C108.46 273.803 109.024 274.301 109.668 274.638C110.313 274.96 111.016 275.122 111.778 275.122C112.657 275.122 113.426 274.96 114.085 274.638C114.759 274.301 115.315 273.803 115.755 273.144C116.194 272.485 116.524 271.665 116.744 270.683C116.963 269.702 117.073 268.559 117.073 267.255V264.992C117.073 263.688 116.941 262.553 116.678 261.586C116.414 260.605 116.041 259.785 115.557 259.125C115.074 258.452 114.502 257.954 113.843 257.631C113.199 257.294 112.496 257.126 111.734 257.126C110.987 257.126 110.291 257.294 109.646 257.631C109.002 257.954 108.438 258.452 107.955 259.125C107.486 259.785 107.12 260.605 106.856 261.586C106.592 262.553 106.46 263.688 106.46 264.992ZM134.212 275.122C134.988 275.122 135.691 274.968 136.321 274.66C136.966 274.338 137.493 273.84 137.903 273.166C138.313 272.478 138.548 271.584 138.606 270.485H142.254C142.195 272.067 141.792 273.459 141.045 274.66C140.313 275.847 139.346 276.777 138.145 277.451C136.958 278.11 135.647 278.439 134.212 278.439C132.674 278.439 131.333 278.19 130.191 277.692C129.063 277.194 128.125 276.477 127.378 275.539C126.646 274.587 126.097 273.437 125.73 272.089C125.364 270.727 125.181 269.182 125.181 267.453V264.772C125.181 263.044 125.364 261.506 125.73 260.158C126.097 258.796 126.646 257.646 127.378 256.708C128.125 255.756 129.063 255.031 130.191 254.533C131.333 254.035 132.674 253.786 134.212 253.786C135.823 253.786 137.215 254.13 138.387 254.819C139.573 255.493 140.496 256.474 141.155 257.763C141.829 259.038 142.195 260.583 142.254 262.399H138.606C138.548 261.228 138.335 260.253 137.969 259.477C137.603 258.686 137.105 258.1 136.475 257.719C135.845 257.324 135.091 257.126 134.212 257.126C133.187 257.126 132.337 257.309 131.663 257.675C131.004 258.027 130.484 258.54 130.103 259.213C129.722 259.887 129.451 260.693 129.29 261.63C129.144 262.568 129.07 263.615 129.07 264.772V267.453C129.07 268.61 129.144 269.665 129.29 270.617C129.451 271.555 129.715 272.36 130.081 273.034C130.462 273.708 130.989 274.228 131.663 274.594C132.337 274.946 133.187 275.122 134.212 275.122ZM169.917 266.53V266.992C169.917 268.662 169.764 270.2 169.456 271.606C169.148 272.998 168.687 274.206 168.072 275.231C167.471 276.257 166.717 277.055 165.809 277.626C164.915 278.183 163.875 278.461 162.688 278.461C161.663 278.461 160.762 278.308 159.986 278C159.209 277.678 158.55 277.216 158.008 276.616C157.466 276.015 157.042 275.297 156.734 274.462C156.426 273.613 156.214 272.661 156.097 271.606V261.059C156.214 259.931 156.426 258.92 156.734 258.027C157.042 257.133 157.459 256.372 157.986 255.742C158.528 255.112 159.18 254.628 159.942 254.292C160.718 253.955 161.619 253.786 162.645 253.786C163.611 253.786 164.483 253.991 165.259 254.401C166.036 254.797 166.709 255.368 167.281 256.115C167.867 256.862 168.35 257.763 168.731 258.818C169.126 259.858 169.419 261.03 169.61 262.333C169.815 263.637 169.917 265.036 169.917 266.53ZM166.05 266.992V266.53C166.05 265.505 165.992 264.531 165.875 263.608C165.772 262.67 165.604 261.813 165.369 261.037C165.149 260.246 164.856 259.558 164.49 258.972C164.139 258.386 163.707 257.932 163.194 257.609C162.696 257.287 162.11 257.126 161.436 257.126C160.748 257.126 160.162 257.236 159.678 257.456C159.209 257.675 158.836 257.968 158.558 258.334C158.279 258.686 158.074 259.06 157.942 259.455V273.232C158.104 273.554 158.323 273.862 158.602 274.155C158.88 274.433 159.246 274.667 159.7 274.858C160.169 275.034 160.762 275.122 161.48 275.122C162.3 275.122 162.996 274.917 163.567 274.506C164.153 274.082 164.629 273.496 164.996 272.749C165.362 272.001 165.625 271.137 165.787 270.156C165.962 269.174 166.05 268.12 166.05 266.992ZM146.055 266.992V266.53C146.055 265.036 146.15 263.637 146.341 262.333C146.546 261.03 146.839 259.858 147.22 258.818C147.615 257.763 148.106 256.862 148.692 256.115C149.278 255.368 149.952 254.797 150.713 254.401C151.49 253.991 152.361 253.786 153.328 253.786C154.324 253.786 155.196 253.955 155.943 254.292C156.69 254.628 157.32 255.112 157.833 255.742C158.36 256.372 158.777 257.133 159.085 258.027C159.393 258.92 159.598 259.931 159.7 261.059V271.188C159.583 272.302 159.371 273.305 159.063 274.199C158.77 275.092 158.36 275.861 157.833 276.506C157.32 277.136 156.69 277.619 155.943 277.956C155.196 278.293 154.317 278.461 153.306 278.461C152.12 278.461 151.072 278.183 150.164 277.626C149.271 277.055 148.516 276.257 147.901 275.231C147.286 274.206 146.824 272.998 146.517 271.606C146.209 270.2 146.055 268.662 146.055 266.992ZM149.944 266.53V266.992C149.944 268.12 150.018 269.174 150.164 270.156C150.311 271.137 150.552 272.001 150.889 272.749C151.226 273.496 151.673 274.082 152.229 274.506C152.786 274.917 153.475 275.122 154.295 275.122C155.027 275.122 155.628 275.012 156.097 274.792C156.565 274.572 156.932 274.287 157.195 273.935C157.474 273.583 157.693 273.217 157.854 272.836V259.455C157.723 259.06 157.518 258.686 157.239 258.334C156.961 257.968 156.58 257.675 156.097 257.456C155.628 257.236 155.042 257.126 154.339 257.126C153.504 257.126 152.801 257.375 152.229 257.873C151.673 258.371 151.226 259.052 150.889 259.917C150.552 260.781 150.311 261.784 150.164 262.927C150.018 264.055 149.944 265.256 149.944 266.53ZM155.877 287.141V244.25H159.744V287.141H155.877ZM183.562 278.439C182.142 278.439 180.86 278.227 179.717 277.802C178.575 277.377 177.601 276.733 176.795 275.869C175.989 274.99 175.374 273.884 174.949 272.551C174.524 271.218 174.312 269.643 174.312 267.827V265.146C174.312 263.051 174.554 261.279 175.037 259.829C175.535 258.378 176.202 257.214 177.037 256.335C177.872 255.441 178.816 254.797 179.871 254.401C180.926 253.991 182.01 253.786 183.123 253.786C184.617 253.786 185.892 254.028 186.946 254.511C188.001 254.995 188.858 255.712 189.517 256.665C190.176 257.617 190.66 258.789 190.967 260.18C191.29 261.572 191.451 263.176 191.451 264.992V267.255H176.597V263.938H187.562V263.388C187.503 262.158 187.334 261.074 187.056 260.136C186.792 259.199 186.353 258.466 185.738 257.939C185.123 257.397 184.251 257.126 183.123 257.126C182.405 257.126 181.739 257.25 181.124 257.5C180.523 257.734 180.003 258.151 179.563 258.752C179.139 259.338 178.802 260.151 178.553 261.191C178.318 262.231 178.201 263.549 178.201 265.146V267.827C178.201 269.101 178.318 270.2 178.553 271.123C178.802 272.031 179.161 272.785 179.629 273.386C180.113 273.972 180.699 274.411 181.387 274.704C182.09 274.982 182.889 275.122 183.782 275.122C185.086 275.122 186.163 274.873 187.012 274.375C187.862 273.862 188.602 273.21 189.231 272.419L191.275 274.858C190.85 275.458 190.293 276.037 189.605 276.594C188.931 277.136 188.096 277.583 187.1 277.934C186.119 278.271 184.939 278.439 183.562 278.439ZM200.042 258.796V287.141H196.153V254.226H199.69L200.042 258.796ZM213.335 265.036V267.255C213.335 269.13 213.16 270.771 212.808 272.177C212.471 273.569 211.966 274.733 211.292 275.671C210.633 276.594 209.82 277.29 208.853 277.758C207.886 278.212 206.78 278.439 205.535 278.439C204.29 278.439 203.206 278.205 202.283 277.736C201.375 277.253 200.606 276.557 199.976 275.649C199.361 274.741 198.87 273.649 198.504 272.375C198.152 271.086 197.911 269.643 197.779 268.046V264.663C197.911 262.978 198.152 261.469 198.504 260.136C198.855 258.789 199.339 257.646 199.954 256.708C200.584 255.756 201.353 255.031 202.261 254.533C203.184 254.035 204.261 253.786 205.491 253.786C206.766 253.786 207.886 254.006 208.853 254.445C209.834 254.885 210.655 255.566 211.314 256.489C211.988 257.397 212.493 258.562 212.83 259.982C213.167 261.389 213.335 263.073 213.335 265.036ZM209.446 267.255V265.036C209.446 263.718 209.344 262.568 209.139 261.586C208.948 260.605 208.641 259.792 208.216 259.147C207.791 258.503 207.256 258.02 206.612 257.697C205.967 257.375 205.191 257.214 204.283 257.214C203.506 257.214 202.818 257.375 202.217 257.697C201.631 258.02 201.126 258.459 200.701 259.016C200.276 259.558 199.925 260.18 199.646 260.883C199.368 261.572 199.163 262.29 199.031 263.037V269.694C199.28 270.632 199.61 271.518 200.02 272.353C200.43 273.173 200.979 273.84 201.668 274.353C202.371 274.865 203.257 275.122 204.327 275.122C205.22 275.122 205.989 274.96 206.634 274.638C207.278 274.316 207.806 273.833 208.216 273.188C208.641 272.529 208.948 271.708 209.139 270.727C209.344 269.731 209.446 268.574 209.446 267.255ZM229.991 273.935V261.037C229.991 260.1 229.844 259.345 229.551 258.774C229.273 258.203 228.848 257.785 228.277 257.521C227.72 257.258 227.017 257.126 226.167 257.126C225.347 257.126 224.637 257.294 224.036 257.631C223.45 257.968 222.996 258.415 222.674 258.972C222.366 259.528 222.212 260.144 222.212 260.817H218.323C218.323 259.968 218.506 259.125 218.873 258.291C219.253 257.456 219.795 256.701 220.499 256.027C221.202 255.339 222.044 254.797 223.025 254.401C224.021 253.991 225.135 253.786 226.365 253.786C227.83 253.786 229.126 254.028 230.254 254.511C231.382 254.98 232.269 255.749 232.913 256.818C233.558 257.888 233.88 259.309 233.88 261.081V272.814C233.88 273.605 233.938 274.448 234.056 275.341C234.188 276.235 234.371 277.004 234.605 277.648V278H230.584C230.394 277.531 230.247 276.909 230.145 276.132C230.042 275.341 229.991 274.609 229.991 273.935ZM230.606 263.586L230.65 266.442H227.947C227.024 266.442 226.182 266.545 225.42 266.75C224.673 266.955 224.029 267.255 223.487 267.651C222.945 268.032 222.527 268.508 222.234 269.079C221.956 269.65 221.817 270.302 221.817 271.035C221.817 271.987 221.949 272.749 222.212 273.32C222.476 273.876 222.872 274.279 223.399 274.528C223.926 274.777 224.593 274.902 225.398 274.902C226.38 274.902 227.244 274.675 227.991 274.221C228.738 273.767 229.317 273.217 229.727 272.573C230.152 271.928 230.35 271.328 230.32 270.771L231.177 272.595C231.119 273.166 230.928 273.789 230.606 274.462C230.298 275.122 229.866 275.759 229.31 276.374C228.753 276.975 228.094 277.473 227.332 277.868C226.585 278.249 225.743 278.439 224.805 278.439C223.428 278.439 222.22 278.176 221.18 277.648C220.154 277.121 219.356 276.345 218.785 275.319C218.213 274.294 217.928 273.027 217.928 271.518C217.928 270.375 218.125 269.321 218.521 268.354C218.917 267.387 219.502 266.552 220.279 265.849C221.055 265.131 222.029 264.575 223.201 264.179C224.388 263.784 225.757 263.586 227.31 263.586H230.606Z"/>
</mask>
<path d="M53.5942 273.935V261.037C53.5942 260.1 53.4478 259.345 53.1548 258.774C52.8765 258.203 52.4517 257.785 51.8804 257.521C51.3237 257.258 50.6206 257.126 49.771 257.126C48.9507 257.126 48.2402 257.294 47.6396 257.631C47.0537 257.968 46.5996 258.415 46.2773 258.972C45.9697 259.528 45.8159 260.144 45.8159 260.817H41.9268C41.9268 259.968 42.1099 259.125 42.4761 258.291C42.8569 257.456 43.3989 256.701 44.1021 256.027C44.8052 255.339 45.6475 254.797 46.6289 254.401C47.625 253.991 48.7383 253.786 49.9688 253.786C51.4336 253.786 52.73 254.028 53.8579 254.511C54.9858 254.98 55.8721 255.749 56.5166 256.818C57.1611 257.888 57.4834 259.309 57.4834 261.081V272.814C57.4834 273.605 57.542 274.448 57.6592 275.341C57.791 276.235 57.9741 277.004 58.2085 277.648V278H54.1875C53.9971 277.531 53.8506 276.909 53.748 276.132C53.6455 275.341 53.5942 274.609 53.5942 273.935ZM54.2095 263.586L54.2534 266.442H51.5508C50.6279 266.442 49.7856 266.545 49.0239 266.75C48.2769 266.955 47.6323 267.255 47.0903 267.651C46.5483 268.032 46.1309 268.508 45.8379 269.079C45.5596 269.65 45.4204 270.302 45.4204 271.035C45.4204 271.987 45.5522 272.749 45.8159 273.32C46.0796 273.876 46.4751 274.279 47.0024 274.528C47.5298 274.777 48.1963 274.902 49.002 274.902C49.9834 274.902 50.8477 274.675 51.5947 274.221C52.3418 273.767 52.9204 273.217 53.3306 272.573C53.7554 271.928 53.9531 271.328 53.9238 270.771L54.7808 272.595C54.7222 273.166 54.5317 273.789 54.2095 274.462C53.9019 275.122 53.4697 275.759 52.9131 276.374C52.3564 276.975 51.6973 277.473 50.9355 277.868C50.1885 278.249 49.3462 278.439 48.4087 278.439C47.0317 278.439 45.8232 278.176 44.7832 277.648C43.7578 277.121 42.9595 276.345 42.3882 275.319C41.8169 274.294 41.5312 273.027 41.5312 271.518C41.5312 270.375 41.729 269.321 42.1245 268.354C42.52 267.387 43.106 266.552 43.8823 265.849C44.6587 265.131 45.6328 264.575 46.8047 264.179C47.9912 263.784 49.3608 263.586 50.9136 263.586H54.2095ZM67.7666 254.226V278H63.8774V254.226H67.7666ZM80.8403 254.226L71.2822 267.849H66.4702L65.855 264.289H69.7002L76.1821 254.226H80.8403ZM76.5337 278L69.5684 267.233L72.0513 264.289L81.4116 278H76.5337ZM93.6943 254.226V278H89.8052V254.226H93.6943ZM100.176 254.226V257.521H83.4111V254.226H100.176ZM102.571 267.255V264.992C102.571 263.146 102.806 261.528 103.274 260.136C103.743 258.73 104.395 257.558 105.23 256.621C106.065 255.683 107.039 254.98 108.152 254.511C109.266 254.028 110.459 253.786 111.734 253.786C113.038 253.786 114.246 254.028 115.359 254.511C116.473 254.98 117.447 255.683 118.282 256.621C119.131 257.558 119.791 258.73 120.259 260.136C120.728 261.528 120.962 263.146 120.962 264.992V267.255C120.962 269.101 120.728 270.727 120.259 272.133C119.791 273.525 119.139 274.689 118.304 275.627C117.469 276.564 116.495 277.268 115.381 277.736C114.268 278.205 113.067 278.439 111.778 278.439C110.489 278.439 109.288 278.205 108.174 277.736C107.061 277.268 106.08 276.564 105.23 275.627C104.395 274.689 103.743 273.525 103.274 272.133C102.806 270.727 102.571 269.101 102.571 267.255ZM106.46 264.992V267.255C106.46 268.559 106.592 269.702 106.856 270.683C107.12 271.665 107.493 272.485 107.977 273.144C108.46 273.803 109.024 274.301 109.668 274.638C110.313 274.96 111.016 275.122 111.778 275.122C112.657 275.122 113.426 274.96 114.085 274.638C114.759 274.301 115.315 273.803 115.755 273.144C116.194 272.485 116.524 271.665 116.744 270.683C116.963 269.702 117.073 268.559 117.073 267.255V264.992C117.073 263.688 116.941 262.553 116.678 261.586C116.414 260.605 116.041 259.785 115.557 259.125C115.074 258.452 114.502 257.954 113.843 257.631C113.199 257.294 112.496 257.126 111.734 257.126C110.987 257.126 110.291 257.294 109.646 257.631C109.002 257.954 108.438 258.452 107.955 259.125C107.486 259.785 107.12 260.605 106.856 261.586C106.592 262.553 106.46 263.688 106.46 264.992ZM134.212 275.122C134.988 275.122 135.691 274.968 136.321 274.66C136.966 274.338 137.493 273.84 137.903 273.166C138.313 272.478 138.548 271.584 138.606 270.485H142.254C142.195 272.067 141.792 273.459 141.045 274.66C140.313 275.847 139.346 276.777 138.145 277.451C136.958 278.11 135.647 278.439 134.212 278.439C132.674 278.439 131.333 278.19 130.191 277.692C129.063 277.194 128.125 276.477 127.378 275.539C126.646 274.587 126.097 273.437 125.73 272.089C125.364 270.727 125.181 269.182 125.181 267.453V264.772C125.181 263.044 125.364 261.506 125.73 260.158C126.097 258.796 126.646 257.646 127.378 256.708C128.125 255.756 129.063 255.031 130.191 254.533C131.333 254.035 132.674 253.786 134.212 253.786C135.823 253.786 137.215 254.13 138.387 254.819C139.573 255.493 140.496 256.474 141.155 257.763C141.829 259.038 142.195 260.583 142.254 262.399H138.606C138.548 261.228 138.335 260.253 137.969 259.477C137.603 258.686 137.105 258.1 136.475 257.719C135.845 257.324 135.091 257.126 134.212 257.126C133.187 257.126 132.337 257.309 131.663 257.675C131.004 258.027 130.484 258.54 130.103 259.213C129.722 259.887 129.451 260.693 129.29 261.63C129.144 262.568 129.07 263.615 129.07 264.772V267.453C129.07 268.61 129.144 269.665 129.29 270.617C129.451 271.555 129.715 272.36 130.081 273.034C130.462 273.708 130.989 274.228 131.663 274.594C132.337 274.946 133.187 275.122 134.212 275.122ZM169.917 266.53V266.992C169.917 268.662 169.764 270.2 169.456 271.606C169.148 272.998 168.687 274.206 168.072 275.231C167.471 276.257 166.717 277.055 165.809 277.626C164.915 278.183 163.875 278.461 162.688 278.461C161.663 278.461 160.762 278.308 159.986 278C159.209 277.678 158.55 277.216 158.008 276.616C157.466 276.015 157.042 275.297 156.734 274.462C156.426 273.613 156.214 272.661 156.097 271.606V261.059C156.214 259.931 156.426 258.92 156.734 258.027C157.042 257.133 157.459 256.372 157.986 255.742C158.528 255.112 159.18 254.628 159.942 254.292C160.718 253.955 161.619 253.786 162.645 253.786C163.611 253.786 164.483 253.991 165.259 254.401C166.036 254.797 166.709 255.368 167.281 256.115C167.867 256.862 168.35 257.763 168.731 258.818C169.126 259.858 169.419 261.03 169.61 262.333C169.815 263.637 169.917 265.036 169.917 266.53ZM166.05 266.992V266.53C166.05 265.505 165.992 264.531 165.875 263.608C165.772 262.67 165.604 261.813 165.369 261.037C165.149 260.246 164.856 259.558 164.49 258.972C164.139 258.386 163.707 257.932 163.194 257.609C162.696 257.287 162.11 257.126 161.436 257.126C160.748 257.126 160.162 257.236 159.678 257.456C159.209 257.675 158.836 257.968 158.558 258.334C158.279 258.686 158.074 259.06 157.942 259.455V273.232C158.104 273.554 158.323 273.862 158.602 274.155C158.88 274.433 159.246 274.667 159.7 274.858C160.169 275.034 160.762 275.122 161.48 275.122C162.3 275.122 162.996 274.917 163.567 274.506C164.153 274.082 164.629 273.496 164.996 272.749C165.362 272.001 165.625 271.137 165.787 270.156C165.962 269.174 166.05 268.12 166.05 266.992ZM146.055 266.992V266.53C146.055 265.036 146.15 263.637 146.341 262.333C146.546 261.03 146.839 259.858 147.22 258.818C147.615 257.763 148.106 256.862 148.692 256.115C149.278 255.368 149.952 254.797 150.713 254.401C151.49 253.991 152.361 253.786 153.328 253.786C154.324 253.786 155.196 253.955 155.943 254.292C156.69 254.628 157.32 255.112 157.833 255.742C158.36 256.372 158.777 257.133 159.085 258.027C159.393 258.92 159.598 259.931 159.7 261.059V271.188C159.583 272.302 159.371 273.305 159.063 274.199C158.77 275.092 158.36 275.861 157.833 276.506C157.32 277.136 156.69 277.619 155.943 277.956C155.196 278.293 154.317 278.461 153.306 278.461C152.12 278.461 151.072 278.183 150.164 277.626C149.271 277.055 148.516 276.257 147.901 275.231C147.286 274.206 146.824 272.998 146.517 271.606C146.209 270.2 146.055 268.662 146.055 266.992ZM149.944 266.53V266.992C149.944 268.12 150.018 269.174 150.164 270.156C150.311 271.137 150.552 272.001 150.889 272.749C151.226 273.496 151.673 274.082 152.229 274.506C152.786 274.917 153.475 275.122 154.295 275.122C155.027 275.122 155.628 275.012 156.097 274.792C156.565 274.572 156.932 274.287 157.195 273.935C157.474 273.583 157.693 273.217 157.854 272.836V259.455C157.723 259.06 157.518 258.686 157.239 258.334C156.961 257.968 156.58 257.675 156.097 257.456C155.628 257.236 155.042 257.126 154.339 257.126C153.504 257.126 152.801 257.375 152.229 257.873C151.673 258.371 151.226 259.052 150.889 259.917C150.552 260.781 150.311 261.784 150.164 262.927C150.018 264.055 149.944 265.256 149.944 266.53ZM155.877 287.141V244.25H159.744V287.141H155.877ZM183.562 278.439C182.142 278.439 180.86 278.227 179.717 277.802C178.575 277.377 177.601 276.733 176.795 275.869C175.989 274.99 175.374 273.884 174.949 272.551C174.524 271.218 174.312 269.643 174.312 267.827V265.146C174.312 263.051 174.554 261.279 175.037 259.829C175.535 258.378 176.202 257.214 177.037 256.335C177.872 255.441 178.816 254.797 179.871 254.401C180.926 253.991 182.01 253.786 183.123 253.786C184.617 253.786 185.892 254.028 186.946 254.511C188.001 254.995 188.858 255.712 189.517 256.665C190.176 257.617 190.66 258.789 190.967 260.18C191.29 261.572 191.451 263.176 191.451 264.992V267.255H176.597V263.938H187.562V263.388C187.503 262.158 187.334 261.074 187.056 260.136C186.792 259.199 186.353 258.466 185.738 257.939C185.123 257.397 184.251 257.126 183.123 257.126C182.405 257.126 181.739 257.25 181.124 257.5C180.523 257.734 180.003 258.151 179.563 258.752C179.139 259.338 178.802 260.151 178.553 261.191C178.318 262.231 178.201 263.549 178.201 265.146V267.827C178.201 269.101 178.318 270.2 178.553 271.123C178.802 272.031 179.161 272.785 179.629 273.386C180.113 273.972 180.699 274.411 181.387 274.704C182.09 274.982 182.889 275.122 183.782 275.122C185.086 275.122 186.163 274.873 187.012 274.375C187.862 273.862 188.602 273.21 189.231 272.419L191.275 274.858C190.85 275.458 190.293 276.037 189.605 276.594C188.931 277.136 188.096 277.583 187.1 277.934C186.119 278.271 184.939 278.439 183.562 278.439ZM200.042 258.796V287.141H196.153V254.226H199.69L200.042 258.796ZM213.335 265.036V267.255C213.335 269.13 213.16 270.771 212.808 272.177C212.471 273.569 211.966 274.733 211.292 275.671C210.633 276.594 209.82 277.29 208.853 277.758C207.886 278.212 206.78 278.439 205.535 278.439C204.29 278.439 203.206 278.205 202.283 277.736C201.375 277.253 200.606 276.557 199.976 275.649C199.361 274.741 198.87 273.649 198.504 272.375C198.152 271.086 197.911 269.643 197.779 268.046V264.663C197.911 262.978 198.152 261.469 198.504 260.136C198.855 258.789 199.339 257.646 199.954 256.708C200.584 255.756 201.353 255.031 202.261 254.533C203.184 254.035 204.261 253.786 205.491 253.786C206.766 253.786 207.886 254.006 208.853 254.445C209.834 254.885 210.655 255.566 211.314 256.489C211.988 257.397 212.493 258.562 212.83 259.982C213.167 261.389 213.335 263.073 213.335 265.036ZM209.446 267.255V265.036C209.446 263.718 209.344 262.568 209.139 261.586C208.948 260.605 208.641 259.792 208.216 259.147C207.791 258.503 207.256 258.02 206.612 257.697C205.967 257.375 205.191 257.214 204.283 257.214C203.506 257.214 202.818 257.375 202.217 257.697C201.631 258.02 201.126 258.459 200.701 259.016C200.276 259.558 199.925 260.18 199.646 260.883C199.368 261.572 199.163 262.29 199.031 263.037V269.694C199.28 270.632 199.61 271.518 200.02 272.353C200.43 273.173 200.979 273.84 201.668 274.353C202.371 274.865 203.257 275.122 204.327 275.122C205.22 275.122 205.989 274.96 206.634 274.638C207.278 274.316 207.806 273.833 208.216 273.188C208.641 272.529 208.948 271.708 209.139 270.727C209.344 269.731 209.446 268.574 209.446 267.255ZM229.991 273.935V261.037C229.991 260.1 229.844 259.345 229.551 258.774C229.273 258.203 228.848 257.785 228.277 257.521C227.72 257.258 227.017 257.126 226.167 257.126C225.347 257.126 224.637 257.294 224.036 257.631C223.45 257.968 222.996 258.415 222.674 258.972C222.366 259.528 222.212 260.144 222.212 260.817H218.323C218.323 259.968 218.506 259.125 218.873 258.291C219.253 257.456 219.795 256.701 220.499 256.027C221.202 255.339 222.044 254.797 223.025 254.401C224.021 253.991 225.135 253.786 226.365 253.786C227.83 253.786 229.126 254.028 230.254 254.511C231.382 254.98 232.269 255.749 232.913 256.818C233.558 257.888 233.88 259.309 233.88 261.081V272.814C233.88 273.605 233.938 274.448 234.056 275.341C234.188 276.235 234.371 277.004 234.605 277.648V278H230.584C230.394 277.531 230.247 276.909 230.145 276.132C230.042 275.341 229.991 274.609 229.991 273.935ZM230.606 263.586L230.65 266.442H227.947C227.024 266.442 226.182 266.545 225.42 266.75C224.673 266.955 224.029 267.255 223.487 267.651C222.945 268.032 222.527 268.508 222.234 269.079C221.956 269.65 221.817 270.302 221.817 271.035C221.817 271.987 221.949 272.749 222.212 273.32C222.476 273.876 222.872 274.279 223.399 274.528C223.926 274.777 224.593 274.902 225.398 274.902C226.38 274.902 227.244 274.675 227.991 274.221C228.738 273.767 229.317 273.217 229.727 272.573C230.152 271.928 230.35 271.328 230.32 270.771L231.177 272.595C231.119 273.166 230.928 273.789 230.606 274.462C230.298 275.122 229.866 275.759 229.31 276.374C228.753 276.975 228.094 277.473 227.332 277.868C226.585 278.249 225.743 278.439 224.805 278.439C223.428 278.439 222.22 278.176 221.18 277.648C220.154 277.121 219.356 276.345 218.785 275.319C218.213 274.294 217.928 273.027 217.928 271.518C217.928 270.375 218.125 269.321 218.521 268.354C218.917 267.387 219.502 266.552 220.279 265.849C221.055 265.131 222.029 264.575 223.201 264.179C224.388 263.784 225.757 263.586 227.31 263.586H230.606Z" fill="black"/>
<path d="M53.1548 258.774L51.3568 259.65L51.3658 259.668L51.3752 259.687L53.1548 258.774ZM51.8804 257.521L51.0242 259.329L51.0332 259.333L51.0423 259.337L51.8804 257.521ZM47.6396 257.631L46.6611 255.887L46.6519 255.892L46.6427 255.898L47.6396 257.631ZM46.2773 258.972L44.5465 257.97L44.5365 257.987L44.5269 258.004L46.2773 258.972ZM45.8159 260.817V262.817H47.8159V260.817H45.8159ZM41.9268 260.817H39.9268V262.817H41.9268V260.817ZM42.4761 258.291L40.6564 257.461L40.6504 257.474L40.6445 257.487L42.4761 258.291ZM44.1021 256.027L45.4859 257.471L45.4936 257.464L45.5013 257.456L44.1021 256.027ZM46.6289 254.401L47.3765 256.256L47.3834 256.254L47.3904 256.251L46.6289 254.401ZM53.8579 254.511L53.0701 256.35L53.0802 256.354L53.0904 256.358L53.8579 254.511ZM57.6592 275.341L55.6762 275.601L55.6783 275.617L55.6806 275.633L57.6592 275.341ZM58.2085 277.648H60.2085V277.296L60.0881 276.965L58.2085 277.648ZM58.2085 278V280H60.2085V278H58.2085ZM54.1875 278L52.3346 278.753L52.8413 280H54.1875V278ZM53.748 276.132L51.7646 276.389L51.7653 276.394L53.748 276.132ZM54.2095 263.586L56.2092 263.555L56.1789 261.586H54.2095V263.586ZM54.2534 266.442V268.442H56.2844L56.2532 266.412L54.2534 266.442ZM49.0239 266.75L48.504 264.819L48.4945 264.821L49.0239 266.75ZM47.0903 267.651L48.2402 269.287L48.2548 269.277L48.2693 269.266L47.0903 267.651ZM45.8379 269.079L44.0583 268.166L44.0489 268.185L44.0399 268.203L45.8379 269.079ZM45.8159 273.32L44 274.158L44.0042 274.167L44.0084 274.176L45.8159 273.32ZM53.3306 272.573L51.6606 271.472L51.6518 271.485L51.6432 271.499L53.3306 272.573ZM53.9238 270.771L55.734 269.92L51.9266 270.876L53.9238 270.771ZM54.7808 272.595L56.7703 272.799L56.827 272.247L56.5909 271.744L54.7808 272.595ZM54.2095 274.462L52.4052 273.599L52.4011 273.608L52.3971 273.617L54.2095 274.462ZM52.9131 276.374L54.3799 277.734L54.3881 277.725L54.3962 277.716L52.9131 276.374ZM50.9355 277.868L51.8439 279.65L51.8506 279.647L51.8572 279.643L50.9355 277.868ZM44.7832 277.648L43.8685 279.427L43.8787 279.432L44.7832 277.648ZM43.8823 265.849L45.2249 267.332L45.2325 267.325L45.24 267.318L43.8823 265.849ZM46.8047 264.179L46.1722 262.282L46.1651 262.284L46.8047 264.179ZM55.5942 273.935V261.037H51.5942V273.935H55.5942ZM55.5942 261.037C55.5942 259.918 55.4234 258.815 54.9344 257.861L51.3752 259.687C51.4721 259.876 51.5942 260.282 51.5942 261.037H55.5942ZM54.9528 257.898C54.4746 256.917 53.7131 256.165 52.7185 255.706L51.0423 259.337C51.1902 259.406 51.2783 259.489 51.3568 259.65L54.9528 257.898ZM52.7365 255.714C51.8308 255.285 50.811 255.126 49.771 255.126V259.126C50.4302 259.126 50.8166 259.231 51.0242 259.329L52.7365 255.714ZM49.771 255.126C48.6736 255.126 47.613 255.353 46.6611 255.887L48.6182 259.376C48.8674 259.236 49.2278 259.126 49.771 259.126V255.126ZM46.6427 255.898C45.7682 256.4 45.0539 257.093 44.5465 257.97L48.0082 259.974C48.1453 259.737 48.3392 259.536 48.6366 259.365L46.6427 255.898ZM44.5269 258.004C44.0458 258.875 43.8159 259.826 43.8159 260.817H47.8159C47.8159 260.461 47.8937 260.182 48.0278 259.939L44.5269 258.004ZM45.8159 258.817H41.9268V262.817H45.8159V258.817ZM43.9268 260.817C43.9268 260.264 44.0443 259.694 44.3077 259.094L40.6445 257.487C40.1754 258.557 39.9268 259.671 39.9268 260.817H43.9268ZM44.2957 259.121C44.5652 258.53 44.9543 257.981 45.4859 257.471L42.7182 254.583C41.8436 255.422 41.1487 256.381 40.6564 257.461L44.2957 259.121ZM45.5013 257.456C46.0035 256.965 46.6196 256.561 47.3765 256.256L45.8814 252.546C44.6753 253.032 43.6069 253.713 42.7028 254.598L45.5013 257.456ZM47.3904 256.251C48.113 255.953 48.9626 255.786 49.9688 255.786V251.786C48.5139 251.786 47.137 252.029 45.8674 252.552L47.3904 256.251ZM49.9688 255.786C51.2142 255.786 52.2344 255.991 53.0701 256.35L54.6457 252.673C53.2255 252.064 51.6529 251.786 49.9688 251.786V255.786ZM53.0904 256.358C53.8151 256.659 54.3741 257.138 54.8037 257.851L58.2295 255.786C57.37 254.36 56.1566 253.301 54.6254 252.664L53.0904 256.358ZM54.8037 257.851C55.1975 258.504 55.4834 259.528 55.4834 261.081H59.4834C59.4834 259.09 59.1247 257.271 58.2295 255.786L54.8037 257.851ZM55.4834 261.081V272.814H59.4834V261.081H55.4834ZM55.4834 272.814C55.4834 273.703 55.5492 274.633 55.6762 275.601L59.6422 275.081C59.5348 274.262 59.4834 273.508 59.4834 272.814H55.4834ZM55.6806 275.633C55.8263 276.621 56.0366 277.528 56.3289 278.332L60.0881 276.965C59.9117 276.48 59.7557 275.849 59.6378 275.049L55.6806 275.633ZM56.2085 277.648V278H60.2085V277.648H56.2085ZM58.2085 276H54.1875V280H58.2085V276ZM56.0404 277.247C55.9388 276.997 55.8218 276.56 55.7308 275.87L51.7653 276.394C51.8793 277.258 52.0553 278.065 52.3346 278.753L56.0404 277.247ZM55.7315 275.875C55.638 275.154 55.5942 274.509 55.5942 273.935H51.5942C51.5942 274.709 51.653 275.528 51.7646 276.389L55.7315 275.875ZM52.2097 263.617L52.2537 266.473L56.2532 266.412L56.2092 263.555L52.2097 263.617ZM54.2534 264.442H51.5508V268.442H54.2534V264.442ZM51.5508 264.442C50.4813 264.442 49.4611 264.561 48.504 264.819L49.5439 268.681C50.1102 268.529 50.7746 268.442 51.5508 268.442V264.442ZM48.4945 264.821C47.5494 265.081 46.6769 265.477 45.9114 266.035L48.2693 269.266C48.5877 269.034 49.0044 268.829 49.5534 268.679L48.4945 264.821ZM45.9404 266.014C45.1417 266.576 44.5041 267.297 44.0583 268.166L47.6175 269.992C47.7576 269.719 47.955 269.488 48.2402 269.287L45.9404 266.014ZM44.0399 268.203C43.6098 269.086 43.4204 270.045 43.4204 271.035H47.4204C47.4204 270.559 47.5094 270.215 47.6359 269.955L44.0399 268.203ZM43.4204 271.035C43.4204 272.141 43.569 273.224 44 274.158L47.6318 272.482C47.5355 272.273 47.4204 271.832 47.4204 271.035H43.4204ZM44.0084 274.176C44.4582 275.125 45.178 275.879 46.1484 276.337L47.8565 272.72C47.7722 272.68 47.701 272.627 47.6234 272.464L44.0084 274.176ZM46.1484 276.337C47.0244 276.75 48.0069 276.902 49.002 276.902V272.902C48.3856 272.902 48.0351 272.804 47.8565 272.72L46.1484 276.337ZM49.002 276.902C50.3037 276.902 51.5362 276.597 52.6336 275.93L50.5559 272.512C50.1591 272.753 49.6631 272.902 49.002 272.902V276.902ZM52.6336 275.93C53.6047 275.339 54.4208 274.585 55.0179 273.647L51.6432 271.499C51.42 271.85 51.0789 272.194 50.5559 272.512L52.6336 275.93ZM55.0005 273.673C55.5719 272.806 55.98 271.786 55.9211 270.666L51.9266 270.876C51.9267 270.878 51.9271 270.888 51.9241 270.909C51.921 270.93 51.914 270.964 51.8978 271.013C51.8648 271.114 51.7964 271.266 51.6606 271.472L55.0005 273.673ZM52.1137 271.622L52.9706 273.445L56.5909 271.744L55.734 269.92L52.1137 271.622ZM52.7912 272.391C52.7619 272.676 52.6565 273.074 52.4052 273.599L56.0137 275.325C56.4069 274.503 56.6824 273.656 56.7703 272.799L52.7912 272.391ZM52.3971 273.617C52.1848 274.072 51.8712 274.545 51.43 275.032L54.3962 277.716C55.0682 276.973 55.6189 276.172 56.0218 275.308L52.3971 273.617ZM51.4462 275.014C51.0535 275.438 50.5813 275.799 50.0139 276.093L51.8572 279.643C52.8133 279.147 53.6594 278.511 54.3799 277.734L51.4462 275.014ZM50.0272 276.086C49.5932 276.308 49.0681 276.439 48.4087 276.439V280.439C49.6242 280.439 50.7837 280.19 51.8439 279.65L50.0272 276.086ZM48.4087 276.439C47.2894 276.439 46.4009 276.226 45.6877 275.865L43.8787 279.432C45.2455 280.125 46.774 280.439 48.4087 280.439V276.439ZM45.6979 275.87C45.03 275.526 44.5183 275.033 44.1353 274.346L40.641 276.293C41.4007 277.656 42.4856 278.716 43.8685 279.427L45.6979 275.87ZM44.1353 274.346C43.7706 273.691 43.5312 272.781 43.5312 271.518H39.5312C39.5312 273.273 39.8632 274.897 40.641 276.293L44.1353 274.346ZM43.5312 271.518C43.5312 270.611 43.6873 269.816 43.9756 269.111L40.2734 267.597C39.7707 268.826 39.5312 270.14 39.5312 271.518H43.5312ZM43.9756 269.111C44.2576 268.422 44.6695 267.835 45.2249 267.332L42.5398 264.367C41.5425 265.27 40.7824 266.352 40.2734 267.597L43.9756 269.111ZM45.24 267.318C45.7776 266.821 46.4943 266.395 47.4442 266.074L46.1651 262.284C44.7714 262.755 43.5398 263.442 42.5246 264.381L45.24 267.318ZM47.4371 266.077C48.3773 265.763 49.526 265.586 50.9136 265.586V261.586C49.1956 261.586 47.6051 261.804 46.1722 262.282L47.4371 266.077ZM50.9136 265.586H54.2095V261.586H50.9136V265.586ZM67.7666 254.226H69.7666V252.226H67.7666V254.226ZM67.7666 278V280H69.7666V278H67.7666ZM63.8774 278H61.8774V280H63.8774V278ZM63.8774 254.226V252.226H61.8774V254.226H63.8774ZM80.8403 254.226L82.4776 255.374L84.6867 252.226H80.8403V254.226ZM71.2822 267.849V269.849H72.3222L72.9194 268.997L71.2822 267.849ZM66.4702 267.849L64.4994 268.189L64.7862 269.849H66.4702V267.849ZM65.855 264.289V262.289H63.4796L63.8842 264.63L65.855 264.289ZM69.7002 264.289V266.289H70.791L71.3816 265.372L69.7002 264.289ZM76.1821 254.226V252.226H75.0914L74.5007 253.143L76.1821 254.226ZM76.5337 278L74.8545 279.086L75.4455 280H76.5337V278ZM69.5684 267.233L68.0394 265.944L67.0847 267.076L67.8891 268.32L69.5684 267.233ZM72.0513 264.289L73.7031 263.161L72.2191 260.988L70.5223 263L72.0513 264.289ZM81.4116 278V280H85.1986L83.0634 276.872L81.4116 278ZM65.7666 254.226V278H69.7666V254.226H65.7666ZM67.7666 276H63.8774V280H67.7666V276ZM65.8774 278V254.226H61.8774V278H65.8774ZM63.8774 256.226H67.7666V252.226H63.8774V256.226ZM79.2031 253.077L69.645 266.7L72.9194 268.997L82.4776 255.374L79.2031 253.077ZM71.2822 265.849H66.4702V269.849H71.2822V265.849ZM68.441 267.508L67.8258 263.948L63.8842 264.63L64.4994 268.189L68.441 267.508ZM65.855 266.289H69.7002V262.289H65.855V266.289ZM71.3816 265.372L77.8635 255.309L74.5007 253.143L68.0188 263.206L71.3816 265.372ZM76.1821 256.226H80.8403V252.226H76.1821V256.226ZM78.2129 276.914L71.2476 266.147L67.8891 268.32L74.8545 279.086L78.2129 276.914ZM71.0973 268.523L73.5802 265.578L70.5223 263L68.0394 265.944L71.0973 268.523ZM70.3995 265.417L79.7598 279.128L83.0634 276.872L73.7031 263.161L70.3995 265.417ZM81.4116 276H76.5337V280H81.4116V276ZM93.6943 254.226H95.6943V252.226H93.6943V254.226ZM93.6943 278V280H95.6943V278H93.6943ZM89.8052 278H87.8052V280H89.8052V278ZM89.8052 254.226V252.226H87.8052V254.226H89.8052ZM100.176 254.226H102.176V252.226H100.176V254.226ZM100.176 257.521V259.521H102.176V257.521H100.176ZM83.4111 257.521H81.4111V259.521H83.4111V257.521ZM83.4111 254.226V252.226H81.4111V254.226H83.4111ZM91.6943 254.226V278H95.6943V254.226H91.6943ZM93.6943 276H89.8052V280H93.6943V276ZM91.8052 278V254.226H87.8052V278H91.8052ZM89.8052 256.226H93.6943V252.226H89.8052V256.226ZM98.1763 254.226V257.521H102.176V254.226H98.1763ZM100.176 255.521H83.4111V259.521H100.176V255.521ZM85.4111 257.521V254.226H81.4111V257.521H85.4111ZM83.4111 256.226H100.176V252.226H83.4111V256.226ZM103.274 260.136L105.17 260.775L105.172 260.769L103.274 260.136ZM108.152 254.511L108.928 256.355L108.939 256.35L108.949 256.346L108.152 254.511ZM115.359 254.511L114.563 256.346L114.573 256.35L114.583 256.355L115.359 254.511ZM118.282 256.621L116.788 257.951L116.794 257.957L116.8 257.964L118.282 256.621ZM120.259 260.136L118.362 260.769L118.364 260.775L120.259 260.136ZM120.259 272.133L122.155 272.772L122.157 272.766L120.259 272.133ZM105.23 275.627L103.736 276.957L103.742 276.964L103.748 276.97L105.23 275.627ZM103.274 272.133L101.377 272.766L101.379 272.772L103.274 272.133ZM109.668 274.638L108.742 276.411L108.758 276.419L108.774 276.427L109.668 274.638ZM114.085 274.638L114.963 276.435L114.971 276.431L114.979 276.427L114.085 274.638ZM116.678 261.586L114.746 262.105L114.748 262.113L116.678 261.586ZM115.557 259.125L113.932 260.291L113.938 260.3L113.944 260.308L115.557 259.125ZM113.843 257.631L112.917 259.404L112.941 259.416L112.965 259.428L113.843 257.631ZM109.646 257.631L110.541 259.42L110.557 259.412L110.573 259.404L109.646 257.631ZM107.955 259.125L106.329 257.96L106.325 257.966L107.955 259.125ZM106.856 261.586L108.785 262.113L108.787 262.105L106.856 261.586ZM104.571 267.255V264.992H100.571V267.255H104.571ZM104.571 264.992C104.571 263.31 104.785 261.915 105.17 260.775L101.379 259.498C100.826 261.14 100.571 262.983 100.571 264.992H104.571ZM105.172 260.769C105.57 259.574 106.099 258.652 106.724 257.951L103.736 255.29C102.691 256.464 101.916 257.886 101.377 259.504L105.172 260.769ZM106.724 257.951C107.368 257.227 108.1 256.703 108.928 256.355L107.376 252.668C105.978 253.257 104.761 254.14 103.736 255.29L106.724 257.951ZM108.949 256.346C109.798 255.977 110.72 255.786 111.734 255.786V251.786C110.199 251.786 108.733 252.079 107.356 252.677L108.949 256.346ZM111.734 255.786C112.784 255.786 113.719 255.979 114.563 256.346L116.156 252.677C114.773 252.076 113.291 251.786 111.734 251.786V255.786ZM114.583 256.355C115.411 256.703 116.143 257.227 116.788 257.951L119.775 255.29C118.75 254.14 117.534 253.257 116.135 252.668L114.583 256.355ZM116.8 257.964C117.434 258.663 117.966 259.581 118.362 260.769L122.157 259.504C121.615 257.879 120.829 256.453 119.764 255.278L116.8 257.964ZM118.364 260.775C118.748 261.915 118.962 263.31 118.962 264.992H122.962C122.962 262.983 122.708 261.14 122.155 259.498L118.364 260.775ZM118.962 264.992V267.255H122.962V264.992H118.962ZM118.962 267.255C118.962 268.937 118.748 270.341 118.362 271.501L122.157 272.766C122.708 271.113 122.962 269.266 122.962 267.255H118.962ZM118.364 271.495C117.967 272.674 117.438 273.592 116.81 274.297L119.797 276.957C120.839 275.787 121.614 274.376 122.155 272.772L118.364 271.495ZM116.81 274.297C116.165 275.021 115.433 275.544 114.605 275.893L116.157 279.58C117.556 278.991 118.772 278.108 119.797 276.957L116.81 274.297ZM114.605 275.893C113.754 276.252 112.818 276.439 111.778 276.439V280.439C113.315 280.439 114.782 280.159 116.157 279.58L114.605 275.893ZM111.778 276.439C110.737 276.439 109.802 276.252 108.95 275.893L107.398 279.58C108.773 280.159 110.24 280.439 111.778 280.439V276.439ZM108.95 275.893C108.119 275.543 107.375 275.016 106.712 274.284L103.748 276.97C104.784 278.113 106.003 278.992 107.398 279.58L108.95 275.893ZM106.724 274.297C106.095 273.592 105.567 272.674 105.17 271.495L101.379 272.772C101.919 274.376 102.695 275.787 103.736 276.957L106.724 274.297ZM105.172 271.501C104.785 270.341 104.571 268.937 104.571 267.255H100.571C100.571 269.266 100.826 271.113 101.377 272.766L105.172 271.501ZM104.46 264.992V267.255H108.46V264.992H104.46ZM104.46 267.255C104.46 268.688 104.605 270.012 104.924 271.202L108.787 270.164C108.58 269.392 108.46 268.431 108.46 267.255H104.46ZM104.924 271.202C105.237 272.366 105.703 273.426 106.364 274.327L109.589 271.961C109.283 271.544 109.002 270.963 108.787 270.164L104.924 271.202ZM106.364 274.327C107.005 275.202 107.795 275.915 108.742 276.411L110.595 272.866C110.253 272.687 109.915 272.405 109.589 271.961L106.364 274.327ZM108.774 276.427C109.712 276.896 110.724 277.122 111.778 277.122V273.122C111.308 273.122 110.914 273.025 110.563 272.849L108.774 276.427ZM111.778 277.122C112.902 277.122 113.982 276.915 114.963 276.435L113.207 272.841C112.87 273.006 112.412 273.122 111.778 273.122V277.122ZM114.979 276.427C115.981 275.926 116.797 275.187 117.419 274.253L114.091 272.035C113.834 272.42 113.537 272.676 113.191 272.849L114.979 276.427ZM117.419 274.253C118.026 273.343 118.436 272.28 118.695 271.12L114.792 270.246C114.612 271.05 114.363 271.627 114.091 272.035L117.419 274.253ZM118.695 271.12C118.955 269.96 119.073 268.665 119.073 267.255H115.073C115.073 268.453 114.972 269.443 114.792 270.246L118.695 271.12ZM119.073 267.255V264.992H115.073V267.255H119.073ZM119.073 264.992C119.073 263.561 118.929 262.241 118.607 261.06L114.748 262.113C114.954 262.865 115.073 263.816 115.073 264.992H119.073ZM118.609 261.068C118.296 259.903 117.831 258.844 117.17 257.943L113.944 260.308C114.251 260.726 114.532 261.307 114.746 262.105L118.609 261.068ZM117.182 257.96C116.531 257.052 115.715 256.32 114.722 255.835L112.965 259.428C113.29 259.587 113.616 259.851 113.932 260.291L117.182 257.96ZM114.77 255.859C113.826 255.365 112.802 255.126 111.734 255.126V259.126C112.189 259.126 112.572 259.224 112.917 259.404L114.77 255.859ZM111.734 255.126C110.673 255.126 109.658 255.368 108.72 255.859L110.573 259.404C110.924 259.221 111.3 259.126 111.734 259.126V255.126ZM108.752 255.842C107.776 256.331 106.974 257.062 106.33 257.96L109.58 260.291C109.902 259.841 110.228 259.577 110.541 259.42L108.752 255.842ZM106.325 257.966C105.688 258.862 105.235 259.913 104.924 261.068L108.787 262.105C109.005 261.297 109.284 260.707 109.585 260.285L106.325 257.966ZM104.926 261.06C104.604 262.241 104.46 263.561 104.46 264.992H108.46C108.46 263.816 108.58 262.865 108.785 262.113L104.926 261.06ZM136.321 274.66L137.199 276.457L137.207 276.453L137.216 276.449L136.321 274.66ZM137.903 273.166L139.612 274.206L139.617 274.198L139.622 274.19L137.903 273.166ZM138.606 270.485V268.485H136.71L136.609 270.379L138.606 270.485ZM142.254 270.485L144.253 270.559L144.329 268.485H142.254V270.485ZM141.045 274.66L139.347 273.604L139.344 273.61L141.045 274.66ZM138.145 277.451L139.116 279.199L139.124 279.195L138.145 277.451ZM130.191 277.692L129.383 279.522L129.392 279.526L130.191 277.692ZM127.378 275.539L125.793 276.758L125.804 276.772L125.814 276.785L127.378 275.539ZM125.73 272.089L123.799 272.609L123.8 272.614L125.73 272.089ZM125.73 260.158L127.66 260.683L127.662 260.677L125.73 260.158ZM127.378 256.708L125.805 255.474L125.802 255.477L127.378 256.708ZM130.191 254.533L129.392 252.7L129.383 252.704L130.191 254.533ZM138.387 254.819L137.374 256.543L137.386 256.551L137.399 256.558L138.387 254.819ZM141.155 257.763L139.375 258.674L139.381 258.686L139.387 258.698L141.155 257.763ZM142.254 262.399V264.399H144.319L144.253 262.335L142.254 262.399ZM138.606 262.399L136.609 262.499L136.704 264.399H138.606V262.399ZM137.969 259.477L136.154 260.317L136.157 260.324L136.16 260.33L137.969 259.477ZM136.475 257.719L135.412 259.413L135.426 259.422L135.44 259.431L136.475 257.719ZM131.663 257.675L132.604 259.44L132.611 259.436L132.618 259.433L131.663 257.675ZM129.29 261.63L127.319 261.292L127.316 261.307L127.314 261.322L129.29 261.63ZM129.29 270.617L127.313 270.921L127.316 270.939L127.319 270.956L129.29 270.617ZM130.081 273.034L128.324 273.989L128.332 274.004L128.34 274.018L130.081 273.034ZM131.663 274.594L130.708 276.351L130.723 276.36L130.738 276.367L131.663 274.594ZM134.212 277.122C135.259 277.122 136.267 276.912 137.199 276.457L135.444 272.863C135.115 273.023 134.717 273.122 134.212 273.122V277.122ZM137.216 276.449C138.228 275.943 139.025 275.169 139.612 274.206L136.195 272.126C135.961 272.51 135.704 272.733 135.427 272.871L137.216 276.449ZM139.622 274.19C140.248 273.138 140.534 271.9 140.604 270.592L136.609 270.379C136.562 271.268 136.379 271.817 136.185 272.142L139.622 274.19ZM138.606 272.485H142.254V268.485H138.606V272.485ZM140.255 270.411C140.208 271.688 139.889 272.732 139.347 273.604L142.744 275.716C143.696 274.186 144.183 272.447 144.253 270.559L140.255 270.411ZM139.344 273.61C138.787 274.511 138.068 275.201 137.167 275.706L139.124 279.195C140.625 278.353 141.839 277.182 142.747 275.711L139.344 273.61ZM137.174 275.702C136.302 276.187 135.328 276.439 134.212 276.439V280.439C135.967 280.439 137.615 280.033 139.116 279.199L137.174 275.702ZM134.212 276.439C132.886 276.439 131.829 276.225 130.99 275.859L129.392 279.526C130.838 280.156 132.461 280.439 134.212 280.439V276.439ZM130.999 275.863C130.158 275.491 129.482 274.97 128.943 274.293L125.814 276.785C126.769 277.983 127.968 278.897 129.383 279.522L130.999 275.863ZM128.964 274.32C128.414 273.605 127.969 272.701 127.66 271.565L123.8 272.614C124.224 274.173 124.878 275.569 125.793 276.758L128.964 274.32ZM127.662 271.57C127.35 270.41 127.181 269.044 127.181 267.453H123.181C123.181 269.319 123.378 271.044 123.799 272.609L127.662 271.57ZM127.181 267.453V264.772H123.181V267.453H127.181ZM127.181 264.772C127.181 263.181 127.35 261.825 127.66 260.683L123.8 259.634C123.378 261.187 123.181 262.907 123.181 264.772H127.181ZM127.662 260.677C127.971 259.527 128.415 258.631 128.954 257.94L125.802 255.477C124.877 256.661 124.222 258.065 123.799 259.639L127.662 260.677ZM128.952 257.943C129.493 257.254 130.165 256.731 130.999 256.363L129.383 252.704C127.961 253.332 126.758 254.259 125.805 255.474L128.952 257.943ZM130.99 256.367C131.829 256.001 132.886 255.786 134.212 255.786V251.786C132.461 251.786 130.838 252.069 129.392 252.7L130.99 256.367ZM134.212 255.786C135.534 255.786 136.562 256.066 137.374 256.543L139.4 253.094C137.868 252.195 136.113 251.786 134.212 251.786V255.786ZM137.399 256.558C138.225 257.027 138.882 257.71 139.375 258.674L142.936 256.853C142.11 255.238 140.922 253.958 139.374 253.08L137.399 256.558ZM139.387 258.698C139.887 259.643 140.204 260.874 140.255 262.464L144.253 262.335C144.187 260.292 143.771 258.432 142.923 256.828L139.387 258.698ZM142.254 260.399H138.606V264.399H142.254V260.399ZM140.604 262.3C140.537 260.956 140.289 259.706 139.778 258.624L136.16 260.33C136.382 260.801 136.559 261.499 136.609 262.499L140.604 262.3ZM139.784 258.637C139.282 257.552 138.54 256.63 137.51 256.008L135.44 259.431C135.67 259.57 135.924 259.82 136.154 260.317L139.784 258.637ZM137.539 256.025C136.536 255.396 135.398 255.126 134.212 255.126V259.126C134.784 259.126 135.154 259.251 135.412 259.413L137.539 256.025ZM134.212 255.126C132.961 255.126 131.757 255.348 130.708 255.918L132.618 259.433C132.917 259.27 133.412 259.126 134.212 259.126V255.126ZM130.722 255.911C129.715 256.448 128.923 257.237 128.362 258.229L131.844 260.197C132.045 259.842 132.293 259.606 132.604 259.44L130.722 255.911ZM128.362 258.229C127.845 259.143 127.51 260.177 127.319 261.292L131.261 261.969C131.392 261.208 131.599 260.631 131.844 260.197L128.362 258.229ZM127.314 261.322C127.149 262.381 127.07 263.533 127.07 264.772H131.07C131.07 263.697 131.139 262.755 131.266 261.939L127.314 261.322ZM127.07 264.772V267.453H131.07V264.772H127.07ZM127.07 267.453C127.07 268.693 127.149 269.851 127.313 270.921L131.267 270.313C131.138 269.479 131.07 268.528 131.07 267.453H127.07ZM127.319 270.956C127.509 272.059 127.831 273.083 128.324 273.989L131.838 272.079C131.598 271.637 131.394 271.05 131.261 270.278L127.319 270.956ZM128.34 274.018C128.903 275.015 129.702 275.805 130.708 276.351L132.618 272.837C132.277 272.651 132.02 272.401 131.822 272.05L128.34 274.018ZM130.738 276.367C131.779 276.911 132.972 277.122 134.212 277.122V273.122C133.401 273.122 132.894 272.981 132.588 272.821L130.738 276.367ZM169.456 271.606L171.409 272.038L171.41 272.033L169.456 271.606ZM168.072 275.231L166.357 274.202L166.351 274.212L166.346 274.221L168.072 275.231ZM165.809 277.626L166.866 279.324L166.873 279.319L165.809 277.626ZM159.986 278L159.219 279.847L159.234 279.853L159.249 279.859L159.986 278ZM156.734 274.462L154.853 275.143L154.857 275.154L156.734 274.462ZM156.097 271.606H154.097V271.717L154.109 271.827L156.097 271.606ZM156.097 261.059L154.107 260.852L154.097 260.955V261.059H156.097ZM157.986 255.742L156.47 254.437L156.461 254.447L156.453 254.458L157.986 255.742ZM159.942 254.292L159.146 252.457L159.133 252.462L159.942 254.292ZM165.259 254.401L164.325 256.17L164.338 256.177L164.351 256.183L165.259 254.401ZM167.281 256.115L165.692 257.33L165.699 257.34L165.707 257.35L167.281 256.115ZM168.731 258.818L166.85 259.497L166.856 259.513L166.862 259.529L168.731 258.818ZM169.61 262.333L167.631 262.623L167.632 262.633L167.634 262.644L169.61 262.333ZM165.875 263.608L163.886 263.825L163.888 263.843L163.89 263.86L165.875 263.608ZM165.369 261.037L163.442 261.572L163.448 261.594L163.454 261.615L165.369 261.037ZM164.49 258.972L162.775 260.001L162.785 260.016L162.794 260.032L164.49 258.972ZM163.194 257.609L162.107 259.289L162.118 259.296L162.13 259.303L163.194 257.609ZM159.678 257.456L158.851 255.635L158.84 255.64L158.829 255.645L159.678 257.456ZM158.558 258.334L160.126 259.576L160.138 259.56L160.15 259.545L158.558 258.334ZM157.942 259.455L156.045 258.823L155.942 259.131V259.455H157.942ZM157.942 273.232H155.942V273.704L156.154 274.126L157.942 273.232ZM158.602 274.155L157.152 275.532L157.169 275.551L157.187 275.569L158.602 274.155ZM159.7 274.858L158.927 276.702L158.962 276.717L158.998 276.731L159.7 274.858ZM163.567 274.506L164.734 276.131L164.741 276.126L163.567 274.506ZM165.787 270.156L163.818 269.803L163.815 269.817L163.813 269.832L165.787 270.156ZM146.341 262.333L144.365 262.023L144.363 262.034L144.362 262.044L146.341 262.333ZM147.22 258.818L145.347 258.116L145.344 258.123L145.342 258.13L147.22 258.818ZM150.713 254.401L151.635 256.176L151.641 256.173L151.648 256.17L150.713 254.401ZM157.833 255.742L156.281 257.004L156.29 257.015L156.299 257.026L157.833 255.742ZM159.7 261.059H161.7V260.968L161.692 260.878L159.7 261.059ZM159.7 271.188L161.689 271.398L161.7 271.293V271.188H159.7ZM159.063 274.199L157.172 273.548L157.167 273.562L157.163 273.576L159.063 274.199ZM157.833 276.506L156.285 275.239L156.281 275.243L157.833 276.506ZM150.164 277.626L149.087 279.312L149.103 279.322L149.119 279.332L150.164 277.626ZM146.517 271.606L144.563 272.033L144.564 272.038L146.517 271.606ZM152.229 274.506L151.016 276.096L151.03 276.106L151.043 276.116L152.229 274.506ZM157.195 273.935L155.627 272.694L155.611 272.714L155.595 272.735L157.195 273.935ZM157.854 272.836L159.696 273.616L159.854 273.242V272.836H157.854ZM157.854 259.455H159.854V259.131L159.752 258.823L157.854 259.455ZM157.239 258.334L155.647 259.545L155.659 259.56L155.671 259.576L157.239 258.334ZM156.097 257.456L155.248 259.266L155.258 259.271L155.269 259.276L156.097 257.456ZM152.229 257.873L150.915 256.366L150.906 256.374L150.896 256.383L152.229 257.873ZM150.164 262.927L152.147 263.184L152.148 263.181L150.164 262.927ZM155.877 287.141H153.877V289.141H155.877V287.141ZM155.877 244.25V242.25H153.877V244.25H155.877ZM159.744 244.25H161.744V242.25H159.744V244.25ZM159.744 287.141V289.141H161.744V287.141H159.744ZM167.917 266.53V266.992H171.917V266.53H167.917ZM167.917 266.992C167.917 268.54 167.775 269.933 167.502 271.179L171.41 272.033C171.753 270.466 171.917 268.783 171.917 266.992H167.917ZM167.503 271.174C167.233 272.394 166.842 273.394 166.357 274.202L169.787 276.26C170.532 275.019 171.063 273.601 171.409 272.038L167.503 271.174ZM166.346 274.221C165.89 274.999 165.352 275.551 164.744 275.934L166.873 279.319C168.082 278.559 169.052 277.514 169.798 276.242L166.346 274.221ZM164.751 275.929C164.214 276.264 163.55 276.461 162.688 276.461V280.461C164.2 280.461 165.616 280.103 166.866 279.324L164.751 275.929ZM162.688 276.461C161.86 276.461 161.218 276.337 160.723 276.141L159.249 279.859C160.307 280.278 161.467 280.461 162.688 280.461V276.461ZM160.753 276.153C160.239 275.94 159.828 275.647 159.493 275.276L156.524 277.956C157.272 278.785 158.18 279.416 159.219 279.847L160.753 276.153ZM159.493 275.276C159.138 274.883 158.839 274.391 158.611 273.771L154.857 275.154C155.244 276.204 155.794 277.148 156.524 277.956L159.493 275.276ZM158.614 273.782C158.369 273.104 158.187 272.309 158.084 271.385L154.109 271.827C154.241 273.012 154.484 274.122 154.853 275.143L158.614 273.782ZM158.097 271.606V261.059H154.097V271.606H158.097ZM158.086 261.266C158.19 260.26 158.376 259.402 158.625 258.678L154.843 257.376C154.477 258.438 154.237 259.602 154.107 260.852L158.086 261.266ZM158.625 258.678C158.865 257.981 159.171 257.442 159.52 257.026L156.453 254.458C155.747 255.301 155.218 256.286 154.843 257.376L158.625 258.678ZM159.502 257.046C159.85 256.642 160.26 256.338 160.751 256.121L159.133 252.462C158.1 252.919 157.207 253.582 156.47 254.437L159.502 257.046ZM160.738 256.126C161.216 255.919 161.836 255.786 162.645 255.786V251.786C161.402 251.786 160.221 251.99 159.146 252.457L160.738 256.126ZM162.645 255.786C163.319 255.786 163.865 255.927 164.325 256.17L166.194 252.633C165.101 252.056 163.903 251.786 162.645 251.786V255.786ZM164.351 256.183C164.841 256.433 165.288 256.801 165.692 257.33L168.869 254.9C168.131 253.935 167.231 253.161 166.167 252.619L164.351 256.183ZM165.707 257.35C166.14 257.902 166.529 258.607 166.85 259.497L170.612 258.139C170.172 256.919 169.593 255.823 168.854 254.881L165.707 257.35ZM166.862 259.529C167.197 260.41 167.458 261.437 167.631 262.623L171.589 262.044C171.381 260.622 171.056 259.305 170.6 258.107L166.862 259.529ZM167.634 262.644C167.821 263.833 167.917 265.127 167.917 266.53H171.917C171.917 264.945 171.809 263.442 171.586 262.023L167.634 262.644ZM168.05 266.992V266.53H164.05V266.992H168.05ZM168.05 266.53C168.05 265.429 167.987 264.37 167.859 263.356L163.89 263.86C163.996 264.691 164.05 265.581 164.05 266.53H168.05ZM167.863 263.39C167.749 262.35 167.559 261.37 167.284 260.459L163.454 261.615C163.648 262.257 163.795 262.991 163.886 263.825L167.863 263.39ZM167.296 260.502C167.034 259.559 166.671 258.688 166.186 257.912L162.794 260.032C163.042 260.427 163.264 260.933 163.442 261.572L167.296 260.502ZM166.205 257.943C165.713 257.122 165.069 256.426 164.258 255.916L162.13 259.303C162.344 259.437 162.564 259.649 162.775 260.001L166.205 257.943ZM164.28 255.93C163.416 255.371 162.441 255.126 161.436 255.126V259.126C161.778 259.126 161.975 259.203 162.107 259.289L164.28 255.93ZM161.436 255.126C160.543 255.126 159.659 255.267 158.851 255.635L160.506 259.276C160.664 259.204 160.952 259.126 161.436 259.126V255.126ZM158.829 255.645C158.105 255.984 157.463 256.47 156.965 257.124L160.15 259.545C160.209 259.467 160.314 259.366 160.527 259.266L158.829 255.645ZM156.99 257.093C156.578 257.613 156.256 258.19 156.045 258.823L159.84 260.088C159.893 259.929 159.981 259.759 160.126 259.576L156.99 257.093ZM155.942 259.455V273.232H159.942V259.455H155.942ZM156.154 274.126C156.413 274.646 156.753 275.113 157.152 275.532L160.052 272.777C159.893 272.611 159.794 272.463 159.731 272.338L156.154 274.126ZM157.187 275.569C157.689 276.071 158.291 276.436 158.927 276.702L160.474 273.014C160.201 272.899 160.071 272.795 160.016 272.741L157.187 275.569ZM158.998 276.731C159.766 277.019 160.618 277.122 161.48 277.122V273.122C160.907 273.122 160.572 273.049 160.402 272.985L158.998 276.731ZM161.48 277.122C162.647 277.122 163.768 276.824 164.734 276.131L162.401 272.882C162.224 273.009 161.954 273.122 161.48 273.122V277.122ZM164.741 276.126C165.629 275.482 166.303 274.625 166.791 273.629L163.2 271.868C162.956 272.366 162.678 272.681 162.393 272.887L164.741 276.126ZM166.791 273.629C167.259 272.676 167.573 271.618 167.76 270.48L163.813 269.832C163.678 270.657 163.465 271.327 163.2 271.868L166.791 273.629ZM167.755 270.508C167.954 269.397 168.05 268.223 168.05 266.992H164.05C164.05 268.017 163.97 268.952 163.818 269.803L167.755 270.508ZM148.055 266.992V266.53H144.055V266.992H148.055ZM148.055 266.53C148.055 265.12 148.145 263.819 148.32 262.623L144.362 262.044C144.156 263.456 144.055 264.952 144.055 266.53H148.055ZM148.317 262.644C148.505 261.445 148.769 260.403 149.098 259.506L145.342 258.13C144.909 259.313 144.587 260.614 144.365 262.023L148.317 262.644ZM149.092 259.52C149.429 258.622 149.827 257.909 150.266 257.35L147.118 254.881C146.385 255.816 145.801 256.904 145.347 258.116L149.092 259.52ZM150.266 257.35C150.694 256.803 151.153 256.427 151.635 256.176L149.792 252.626C148.751 253.167 147.862 253.933 147.118 254.881L150.266 257.35ZM151.648 256.17C152.108 255.927 152.653 255.786 153.328 255.786V251.786C152.069 251.786 150.872 252.056 149.779 252.633L151.648 256.17ZM153.328 255.786C154.101 255.786 154.681 255.917 155.121 256.115L156.765 252.468C155.71 251.993 154.548 251.786 153.328 251.786V255.786ZM155.121 256.115C155.587 256.325 155.967 256.618 156.281 257.004L159.384 254.479C158.673 253.606 157.793 252.932 156.765 252.468L155.121 256.115ZM156.299 257.026C156.648 257.442 156.954 257.981 157.194 258.678L160.976 257.376C160.601 256.286 160.072 255.301 159.366 254.458L156.299 257.026ZM157.194 258.678C157.44 259.393 157.618 260.242 157.708 261.24L161.692 260.878C161.578 259.62 161.345 258.448 160.976 257.376L157.194 258.678ZM157.7 261.059V271.188H161.7V261.059H157.7ZM157.711 270.979C157.607 271.969 157.422 272.821 157.172 273.548L160.954 274.85C161.319 273.79 161.559 272.635 161.689 271.398L157.711 270.979ZM157.163 273.576C156.937 274.265 156.637 274.809 156.285 275.239L159.38 277.772C160.083 276.914 160.603 275.92 160.963 274.822L157.163 273.576ZM156.281 275.243C155.967 275.63 155.587 275.922 155.121 276.133L156.765 279.779C157.793 279.316 158.673 278.642 159.384 277.768L156.281 275.243ZM155.121 276.133C154.685 276.329 154.098 276.461 153.306 276.461V280.461C154.536 280.461 155.707 280.257 156.765 279.779L155.121 276.133ZM153.306 276.461C152.445 276.461 151.768 276.264 151.209 275.921L149.119 279.332C150.377 280.102 151.794 280.461 153.306 280.461V276.461ZM151.241 275.941C150.64 275.557 150.093 274.997 149.616 274.202L146.186 276.26C146.94 277.517 147.901 278.554 149.087 279.312L151.241 275.941ZM149.616 274.202C149.131 273.394 148.739 272.394 148.469 271.174L144.564 272.038C144.909 273.601 145.441 275.019 146.186 276.26L149.616 274.202ZM148.47 271.179C148.198 269.933 148.055 268.54 148.055 266.992H144.055C144.055 268.783 144.22 270.466 144.563 272.033L148.47 271.179ZM147.944 266.53V266.992H151.944V266.53H147.944ZM147.944 266.992C147.944 268.205 148.023 269.36 148.186 270.451L152.142 269.861C152.012 268.989 151.944 268.034 151.944 266.992H147.944ZM148.186 270.451C148.354 271.578 148.64 272.625 149.066 273.571L152.712 271.926C152.465 271.378 152.267 270.697 152.142 269.861L148.186 270.451ZM149.066 273.571C149.516 274.569 150.154 275.438 151.016 276.096L153.443 272.916C153.192 272.725 152.936 272.423 152.712 271.926L149.066 273.571ZM151.043 276.116C152.004 276.825 153.13 277.122 154.295 277.122V273.122C153.82 273.122 153.568 273.008 153.416 272.896L151.043 276.116ZM154.295 277.122C155.207 277.122 156.125 276.988 156.946 276.603L155.248 272.981C155.131 273.036 154.847 273.122 154.295 273.122V277.122ZM156.946 276.603C157.658 276.269 158.303 275.792 158.795 275.135L155.595 272.735C155.56 272.782 155.473 272.876 155.248 272.981L156.946 276.603ZM158.763 275.176C159.144 274.696 159.46 274.176 159.696 273.616L156.013 272.057C155.927 272.259 155.803 272.471 155.627 272.694L158.763 275.176ZM159.854 272.836V259.455H155.854V272.836H159.854ZM159.752 258.823C159.541 258.19 159.219 257.613 158.807 257.093L155.671 259.576C155.816 259.759 155.904 259.929 155.957 260.088L159.752 258.823ZM158.832 257.124C158.324 256.456 157.662 255.97 156.924 255.635L155.269 259.276C155.498 259.38 155.598 259.48 155.647 259.545L158.832 257.124ZM156.946 255.645C156.134 255.264 155.236 255.126 154.339 255.126V259.126C154.848 259.126 155.122 259.208 155.248 259.266L156.946 255.645ZM154.339 255.126C153.074 255.126 151.889 255.517 150.915 256.366L153.544 259.381C153.713 259.233 153.934 259.126 154.339 259.126V255.126ZM150.896 256.383C150.055 257.135 149.45 258.102 149.026 259.19L152.753 260.643C153.002 260.002 153.29 259.607 153.563 259.364L150.896 256.383ZM149.026 259.19C148.617 260.238 148.343 261.405 148.18 262.672L152.148 263.181C152.278 262.163 152.487 261.324 152.753 260.643L149.026 259.19ZM148.181 262.669C148.022 263.892 147.944 265.18 147.944 266.53H151.944C151.944 265.332 152.013 264.217 152.147 263.184L148.181 262.669ZM157.877 287.141V244.25H153.877V287.141H157.877ZM155.877 246.25H159.744V242.25H155.877V246.25ZM157.744 244.25V287.141H161.744V244.25H157.744ZM159.744 285.141H155.877V289.141H159.744V285.141ZM176.795 275.869L175.321 277.22L175.326 277.226L175.332 277.232L176.795 275.869ZM175.037 259.829L173.146 259.179L173.143 259.188L173.14 259.196L175.037 259.829ZM177.037 256.335L178.487 257.712L178.492 257.706L178.498 257.7L177.037 256.335ZM179.871 254.401L180.573 256.274L180.585 256.27L180.596 256.265L179.871 254.401ZM190.967 260.18L189.014 260.612L189.017 260.622L189.019 260.631L190.967 260.18ZM191.451 267.255V269.255H193.451V267.255H191.451ZM176.597 267.255H174.597V269.255H176.597V267.255ZM176.597 263.938V261.938H174.597V263.938H176.597ZM187.562 263.938V265.938H189.562V263.938H187.562ZM187.562 263.388H189.562V263.341L189.559 263.293L187.562 263.388ZM187.056 260.136L185.131 260.678L185.135 260.692L185.139 260.705L187.056 260.136ZM185.738 257.939L184.416 259.44L184.426 259.449L184.436 259.457L185.738 257.939ZM181.124 257.5L181.851 259.363L181.862 259.358L181.874 259.353L181.124 257.5ZM179.563 258.752L177.949 257.571L177.944 257.578L179.563 258.752ZM178.553 261.191L176.608 260.725L176.605 260.738L176.602 260.751L178.553 261.191ZM178.553 271.123L176.614 271.615L176.619 271.633L176.624 271.651L178.553 271.123ZM179.629 273.386L178.053 274.616L178.069 274.638L178.087 274.659L179.629 273.386ZM181.387 274.704L180.604 276.544L180.627 276.554L180.651 276.564L181.387 274.704ZM187.012 274.375L188.024 276.1L188.035 276.093L188.046 276.087L187.012 274.375ZM189.231 272.419L190.764 271.135L189.192 269.258L187.667 271.173L189.231 272.419ZM191.275 274.858L192.908 276.013L193.798 274.755L192.808 273.573L191.275 274.858ZM189.605 276.594L190.859 278.152L190.862 278.149L189.605 276.594ZM187.1 277.934L187.749 279.826L187.758 279.823L187.766 279.82L187.1 277.934ZM183.562 276.439C182.341 276.439 181.3 276.257 180.414 275.928L179.02 279.677C180.42 280.197 181.942 280.439 183.562 280.439V276.439ZM180.414 275.928C179.554 275.608 178.845 275.134 178.258 274.505L175.332 277.232C176.357 278.332 177.596 279.147 179.02 279.677L180.414 275.928ZM178.269 274.517C177.691 273.886 177.207 273.048 176.855 271.944L173.044 273.158C173.541 274.72 174.288 276.093 175.321 277.22L178.269 274.517ZM176.855 271.944C176.508 270.855 176.312 269.495 176.312 267.827H172.312C172.312 269.791 172.541 271.58 173.044 273.158L176.855 271.944ZM176.312 267.827V265.146H172.312V267.827H176.312ZM176.312 265.146C176.312 263.192 176.539 261.647 176.934 260.461L173.14 259.196C172.568 260.91 172.312 262.91 172.312 265.146H176.312ZM176.929 260.478C177.357 259.23 177.894 258.336 178.487 257.712L175.587 254.957C174.509 256.092 173.713 257.527 173.146 259.179L176.929 260.478ZM178.498 257.7C179.141 257.013 179.832 256.552 180.573 256.274L179.169 252.529C177.801 253.042 176.602 253.87 175.575 254.969L178.498 257.7ZM180.596 256.265C181.423 255.944 182.262 255.786 183.123 255.786V251.786C181.758 251.786 180.428 252.039 179.146 252.537L180.596 256.265ZM183.123 255.786C184.409 255.786 185.384 255.995 186.113 256.329L187.78 252.693C186.4 252.061 184.825 251.786 183.123 251.786V255.786ZM186.113 256.329C186.842 256.663 187.418 257.147 187.873 257.803L191.161 255.526C190.297 254.278 189.16 253.326 187.78 252.693L186.113 256.329ZM187.873 257.803C188.354 258.499 188.75 259.417 189.014 260.612L192.92 259.748C192.569 258.16 191.998 256.735 191.161 255.526L187.873 257.803ZM189.019 260.631C189.299 261.841 189.451 263.289 189.451 264.992H193.451C193.451 263.063 193.28 261.302 192.916 259.729L189.019 260.631ZM189.451 264.992V267.255H193.451V264.992H189.451ZM191.451 265.255H176.597V269.255H191.451V265.255ZM178.597 267.255V263.938H174.597V267.255H178.597ZM176.597 265.938H187.562V261.938H176.597V265.938ZM189.562 263.938V263.388H185.562V263.938H189.562ZM189.559 263.293C189.495 261.941 189.308 260.693 188.973 259.567L185.139 260.705C185.361 261.455 185.511 262.374 185.564 263.483L189.559 263.293ZM188.981 259.595C188.633 258.355 188.01 257.253 187.039 256.42L184.436 259.457C184.696 259.68 184.952 260.042 185.131 260.678L188.981 259.595ZM187.06 256.438C185.962 255.471 184.554 255.126 183.123 255.126V259.126C183.948 259.126 184.283 259.323 184.416 259.44L187.06 256.438ZM183.123 255.126C182.169 255.126 181.246 255.292 180.373 255.646L181.874 259.353C182.232 259.208 182.641 259.126 183.123 259.126V255.126ZM180.396 255.636C179.389 256.029 178.578 256.712 177.949 257.571L181.178 259.933C181.428 259.591 181.657 259.438 181.851 259.363L180.396 255.636ZM177.944 257.578C177.31 258.453 176.891 259.541 176.608 260.725L180.498 261.657C180.712 260.761 180.967 260.223 181.183 259.926L177.944 257.578ZM176.602 260.751C176.323 261.988 176.201 263.467 176.201 265.146H180.201C180.201 263.632 180.314 262.474 180.504 261.631L176.602 260.751ZM176.201 265.146V267.827H180.201V265.146H176.201ZM176.201 267.827C176.201 269.215 176.328 270.487 176.614 271.615L180.491 270.63C180.309 269.912 180.201 268.987 180.201 267.827H176.201ZM176.624 271.651C176.927 272.756 177.388 273.764 178.053 274.616L181.206 272.155C180.933 271.806 180.677 271.305 180.482 270.594L176.624 271.651ZM178.087 274.659C178.771 275.488 179.616 276.124 180.604 276.544L182.17 272.864C181.782 272.698 181.455 272.455 181.172 272.113L178.087 274.659ZM180.651 276.564C181.627 276.95 182.682 277.122 183.782 277.122V273.122C183.096 273.122 182.554 273.015 182.123 272.844L180.651 276.564ZM183.782 277.122C185.33 277.122 186.783 276.827 188.024 276.1L186.001 272.649C185.542 272.918 184.842 273.122 183.782 273.122V277.122ZM188.046 276.087C189.102 275.449 190.021 274.638 190.796 273.665L187.667 271.173C187.182 271.782 186.621 272.275 185.979 272.662L188.046 276.087ZM187.698 273.703L189.742 276.142L192.808 273.573L190.764 271.135L187.698 273.703ZM189.642 273.703C189.342 274.127 188.921 274.575 188.348 275.038L190.862 278.149C191.666 277.499 192.358 276.79 192.908 276.013L189.642 273.703ZM188.351 275.035C187.888 275.408 187.263 275.756 186.434 276.048L187.766 279.82C188.929 279.409 189.975 278.863 190.858 278.152L188.351 275.035ZM186.451 276.042C185.734 276.288 184.786 276.439 183.562 276.439V280.439C185.093 280.439 186.503 280.254 187.749 279.826L186.451 276.042ZM200.042 258.796H202.042V258.719L202.036 258.643L200.042 258.796ZM200.042 287.141V289.141H202.042V287.141H200.042ZM196.153 287.141H194.153V289.141H196.153V287.141ZM196.153 254.226V252.226H194.153V254.226H196.153ZM199.69 254.226L201.685 254.072L201.542 252.226H199.69V254.226ZM212.808 272.177L210.868 271.692L210.866 271.699L210.864 271.707L212.808 272.177ZM211.292 275.671L209.668 274.504L209.665 274.508L211.292 275.671ZM208.853 277.758L209.703 279.569L209.714 279.563L209.726 279.558L208.853 277.758ZM202.283 277.736L201.344 279.502L201.36 279.511L201.377 279.519L202.283 277.736ZM199.976 275.649L198.32 276.771L198.326 276.78L198.333 276.789L199.976 275.649ZM198.504 272.375L196.574 272.901L196.578 272.914L196.582 272.927L198.504 272.375ZM197.779 268.046H195.779V268.129L195.786 268.211L197.779 268.046ZM197.779 264.663L195.785 264.507L195.779 264.584V264.663H197.779ZM198.504 260.136L200.438 260.646L200.439 260.641L198.504 260.136ZM199.954 256.708L198.286 255.605L198.282 255.611L199.954 256.708ZM202.261 254.533L201.311 252.773L201.3 252.78L202.261 254.533ZM208.853 254.445L208.025 256.266L208.036 256.271L208.853 254.445ZM211.314 256.489L209.686 257.651L209.697 257.666L209.708 257.68L211.314 256.489ZM212.83 259.982L210.884 260.444L210.885 260.448L212.83 259.982ZM209.139 261.586L207.175 261.967L207.178 261.981L207.181 261.996L209.139 261.586ZM202.217 257.697L201.272 255.935L201.263 255.94L201.253 255.945L202.217 257.697ZM200.701 259.016L202.275 260.249L202.283 260.239L202.291 260.229L200.701 259.016ZM199.646 260.883L201.501 261.633L201.503 261.626L201.506 261.619L199.646 260.883ZM199.031 263.037L197.062 262.689L197.031 262.862V263.037H199.031ZM199.031 269.694H197.031V269.955L197.098 270.208L199.031 269.694ZM200.02 272.353L198.225 273.235L198.231 273.247L200.02 272.353ZM201.668 274.353L200.473 275.957L200.482 275.963L200.49 275.969L201.668 274.353ZM208.216 273.188L206.535 272.105L206.528 272.114L208.216 273.188ZM209.139 270.727L207.18 270.324L207.177 270.335L207.175 270.346L209.139 270.727ZM198.042 258.796V287.141H202.042V258.796H198.042ZM200.042 285.141H196.153V289.141H200.042V285.141ZM198.153 287.141V254.226H194.153V287.141H198.153ZM196.153 256.226H199.69V252.226H196.153V256.226ZM197.696 254.379L198.048 258.949L202.036 258.643L201.685 254.072L197.696 254.379ZM211.335 265.036V267.255H215.335V265.036H211.335ZM211.335 267.255C211.335 269.012 211.17 270.483 210.868 271.692L214.748 272.662C215.149 271.059 215.335 269.249 215.335 267.255H211.335ZM210.864 271.707C210.574 272.906 210.16 273.819 209.668 274.504L212.916 276.838C213.772 275.648 214.368 274.232 214.752 272.648L210.864 271.707ZM209.665 274.508C209.189 275.175 208.63 275.644 207.98 275.959L209.726 279.558C211.01 278.935 212.077 278.013 212.919 276.833L209.665 274.508ZM208.003 275.948C207.343 276.258 206.535 276.439 205.535 276.439V280.439C207.026 280.439 208.43 280.167 209.703 279.569L208.003 275.948ZM205.535 276.439C204.542 276.439 203.78 276.253 203.189 275.953L201.377 279.519C202.632 280.157 204.039 280.439 205.535 280.439V276.439ZM203.223 275.971C202.616 275.648 202.082 275.176 201.62 274.509L198.333 276.789C199.13 277.939 200.134 278.858 201.344 279.502L203.223 275.971ZM201.632 274.527C201.157 273.826 200.746 272.935 200.426 271.823L196.582 272.927C196.994 274.364 197.565 275.656 198.32 276.771L201.632 274.527ZM200.433 271.849C200.12 270.699 199.896 269.38 199.772 267.882L195.786 268.211C195.926 269.907 196.185 271.473 196.574 272.901L200.433 271.849ZM199.779 268.046V264.663H195.779V268.046H199.779ZM199.773 264.819C199.897 263.228 200.123 261.841 200.438 260.646L196.57 259.626C196.182 261.098 195.924 262.728 195.785 264.507L199.773 264.819ZM200.439 260.641C200.749 259.455 201.155 258.524 201.626 257.806L198.282 255.611C197.523 256.768 196.962 258.122 196.569 259.631L200.439 260.641ZM201.622 257.812C202.091 257.102 202.628 256.613 203.223 256.287L201.3 252.78C200.078 253.449 199.076 254.41 198.286 255.605L201.622 257.812ZM203.211 256.293C203.795 255.978 204.535 255.786 205.491 255.786V251.786C203.987 251.786 202.573 252.092 201.311 252.773L203.211 256.293ZM205.491 255.786C206.536 255.786 207.365 255.966 208.025 256.266L209.681 252.625C208.407 252.046 206.995 251.786 205.491 251.786V255.786ZM208.036 256.271C208.675 256.557 209.222 257.001 209.686 257.651L212.941 255.326C212.088 254.131 210.994 253.213 209.67 252.62L208.036 256.271ZM209.708 257.68C210.18 258.317 210.592 259.213 210.884 260.444L214.776 259.521C214.394 257.91 213.795 256.477 212.92 255.297L209.708 257.68ZM210.885 260.448C211.175 261.659 211.335 263.178 211.335 265.036H215.335C215.335 262.968 215.159 261.119 214.775 259.516L210.885 260.448ZM211.446 267.255V265.036H207.446V267.255H211.446ZM211.446 265.036C211.446 263.621 211.337 262.328 211.096 261.177L207.181 261.996C207.351 262.808 207.446 263.815 207.446 265.036H211.446ZM211.102 261.205C210.876 260.04 210.49 258.964 209.886 258.047L206.546 260.248C206.791 260.62 207.021 261.17 207.175 261.967L211.102 261.205ZM209.886 258.047C209.282 257.13 208.488 256.399 207.506 255.908L205.717 259.486C206.025 259.64 206.3 259.876 206.546 260.248L209.886 258.047ZM207.506 255.908C206.521 255.416 205.423 255.214 204.283 255.214V259.214C204.959 259.214 205.413 259.334 205.717 259.486L207.506 255.908ZM204.283 255.214C203.223 255.214 202.201 255.436 201.272 255.935L203.163 259.46C203.434 259.314 203.79 259.214 204.283 259.214V255.214ZM201.253 255.945C200.412 256.408 199.697 257.035 199.111 257.802L202.291 260.229C202.555 259.883 202.851 259.631 203.181 259.45L201.253 255.945ZM199.127 257.782C198.573 258.489 198.129 259.283 197.787 260.147L201.506 261.619C201.721 261.078 201.98 260.626 202.275 260.249L199.127 257.782ZM197.792 260.134C197.46 260.955 197.217 261.807 197.062 262.689L201.001 263.384C201.109 262.772 201.276 262.189 201.501 261.633L197.792 260.134ZM197.031 263.037V269.694H201.031V263.037H197.031ZM197.098 270.208C197.38 271.267 197.754 272.277 198.225 273.235L201.815 271.471C201.465 270.759 201.181 269.997 200.964 269.181L197.098 270.208ZM198.231 273.247C198.771 274.328 199.517 275.244 200.473 275.957L202.863 272.748C202.442 272.435 202.089 272.019 201.809 271.459L198.231 273.247ZM200.49 275.969C201.607 276.783 202.932 277.122 204.327 277.122V273.122C203.582 273.122 203.135 272.947 202.846 272.737L200.49 275.969ZM204.327 277.122C205.458 277.122 206.547 276.917 207.528 276.427L205.739 272.849C205.431 273.003 204.983 273.122 204.327 273.122V277.122ZM207.528 276.427C208.517 275.933 209.311 275.193 209.903 274.262L206.528 272.114C206.301 272.472 206.04 272.699 205.739 272.849L207.528 276.427ZM209.897 274.271C210.492 273.348 210.876 272.274 211.102 271.108L207.175 270.346C207.021 271.143 206.789 271.709 206.535 272.105L209.897 274.271ZM211.098 271.13C211.337 269.969 211.446 268.672 211.446 267.255H207.446C207.446 268.476 207.351 269.493 207.18 270.324L211.098 271.13ZM229.551 258.774L227.753 259.65L227.762 259.668L227.772 259.687L229.551 258.774ZM228.277 257.521L227.421 259.329L227.43 259.333L227.439 259.337L228.277 257.521ZM224.036 257.631L223.058 255.887L223.048 255.892L223.039 255.898L224.036 257.631ZM222.674 258.972L220.943 257.97L220.933 257.987L220.923 258.004L222.674 258.972ZM222.212 260.817V262.817H224.212V260.817H222.212ZM218.323 260.817H216.323V262.817H218.323V260.817ZM218.873 258.291L217.053 257.461L217.047 257.474L217.041 257.487L218.873 258.291ZM220.499 256.027L221.882 257.471L221.89 257.464L221.898 257.456L220.499 256.027ZM223.025 254.401L223.773 256.256L223.78 256.254L223.787 256.251L223.025 254.401ZM230.254 254.511L229.467 256.35L229.477 256.354L229.487 256.358L230.254 254.511ZM234.056 275.341L232.073 275.601L232.075 275.617L232.077 275.633L234.056 275.341ZM234.605 277.648H236.605V277.296L236.485 276.965L234.605 277.648ZM234.605 278V280H236.605V278H234.605ZM230.584 278L228.731 278.753L229.238 280H230.584V278ZM230.145 276.132L228.161 276.389L228.162 276.394L230.145 276.132ZM230.606 263.586L232.606 263.555L232.575 261.586H230.606V263.586ZM230.65 266.442V268.442H232.681L232.65 266.412L230.65 266.442ZM225.42 266.75L224.9 264.819L224.891 264.821L225.42 266.75ZM223.487 267.651L224.637 269.287L224.651 269.277L224.666 269.266L223.487 267.651ZM222.234 269.079L220.455 268.166L220.445 268.185L220.436 268.203L222.234 269.079ZM222.212 273.32L220.396 274.158L220.401 274.167L220.405 274.176L222.212 273.32ZM229.727 272.573L228.057 271.472L228.048 271.485L228.04 271.499L229.727 272.573ZM230.32 270.771L232.13 269.92L228.323 270.876L230.32 270.771ZM231.177 272.595L233.167 272.799L233.223 272.247L232.987 271.744L231.177 272.595ZM230.606 274.462L228.802 273.599L228.798 273.608L228.794 273.617L230.606 274.462ZM229.31 276.374L230.776 277.734L230.785 277.725L230.793 277.716L229.31 276.374ZM227.332 277.868L228.24 279.65L228.247 279.647L228.254 279.643L227.332 277.868ZM221.18 277.648L220.265 279.427L220.275 279.432L221.18 277.648ZM220.279 265.849L221.621 267.332L221.629 267.325L221.637 267.318L220.279 265.849ZM223.201 264.179L222.569 262.282L222.562 262.284L223.201 264.179ZM231.991 273.935V261.037H227.991V273.935H231.991ZM231.991 261.037C231.991 259.918 231.82 258.815 231.331 257.861L227.772 259.687C227.869 259.876 227.991 260.282 227.991 261.037H231.991ZM231.349 257.898C230.871 256.917 230.11 256.165 229.115 255.706L227.439 259.337C227.587 259.406 227.675 259.489 227.753 259.65L231.349 257.898ZM229.133 255.714C228.227 255.285 227.207 255.126 226.167 255.126V259.126C226.827 259.126 227.213 259.231 227.421 259.329L229.133 255.714ZM226.167 255.126C225.07 255.126 224.01 255.353 223.058 255.887L225.015 259.376C225.264 259.236 225.624 259.126 226.167 259.126V255.126ZM223.039 255.898C222.165 256.4 221.45 257.093 220.943 257.97L224.405 259.974C224.542 259.737 224.736 259.536 225.033 259.365L223.039 255.898ZM220.923 258.004C220.442 258.875 220.212 259.826 220.212 260.817H224.212C224.212 260.461 224.29 260.182 224.424 259.939L220.923 258.004ZM222.212 258.817H218.323V262.817H222.212V258.817ZM220.323 260.817C220.323 260.264 220.441 259.694 220.704 259.094L217.041 257.487C216.572 258.557 216.323 259.671 216.323 260.817H220.323ZM220.692 259.121C220.962 258.53 221.351 257.981 221.882 257.471L219.115 254.583C218.24 255.422 217.545 256.381 217.053 257.461L220.692 259.121ZM221.898 257.456C222.4 256.965 223.016 256.561 223.773 256.256L222.278 252.546C221.072 253.032 220.003 253.713 219.099 254.598L221.898 257.456ZM223.787 256.251C224.51 255.953 225.359 255.786 226.365 255.786V251.786C224.91 251.786 223.533 252.029 222.264 252.552L223.787 256.251ZM226.365 255.786C227.611 255.786 228.631 255.991 229.467 256.35L231.042 252.673C229.622 252.064 228.049 251.786 226.365 251.786V255.786ZM229.487 256.358C230.212 256.659 230.771 257.138 231.2 257.851L234.626 255.786C233.767 254.36 232.553 253.301 231.022 252.664L229.487 256.358ZM231.2 257.851C231.594 258.504 231.88 259.528 231.88 261.081H235.88C235.88 259.09 235.521 257.271 234.626 255.786L231.2 257.851ZM231.88 261.081V272.814H235.88V261.081H231.88ZM231.88 272.814C231.88 273.703 231.946 274.633 232.073 275.601L236.039 275.081C235.931 274.262 235.88 273.508 235.88 272.814H231.88ZM232.077 275.633C232.223 276.621 232.433 277.528 232.725 278.332L236.485 276.965C236.308 276.48 236.152 275.849 236.034 275.049L232.077 275.633ZM232.605 277.648V278H236.605V277.648H232.605ZM234.605 276H230.584V280H234.605V276ZM232.437 277.247C232.335 276.997 232.218 276.56 232.127 275.87L228.162 276.394C228.276 277.258 228.452 278.065 228.731 278.753L232.437 277.247ZM232.128 275.875C232.035 275.154 231.991 274.509 231.991 273.935H227.991C227.991 274.709 228.049 275.528 228.161 276.389L232.128 275.875ZM228.606 263.617L228.65 266.473L232.65 266.412L232.606 263.555L228.606 263.617ZM230.65 264.442H227.947V268.442H230.65V264.442ZM227.947 264.442C226.878 264.442 225.858 264.561 224.9 264.819L225.94 268.681C226.507 268.529 227.171 268.442 227.947 268.442V264.442ZM224.891 264.821C223.946 265.081 223.073 265.477 222.308 266.035L224.666 269.266C224.984 269.034 225.401 268.829 225.95 268.679L224.891 264.821ZM222.337 266.014C221.538 266.576 220.901 267.297 220.455 268.166L224.014 269.992C224.154 269.719 224.351 269.488 224.637 269.287L222.337 266.014ZM220.436 268.203C220.006 269.086 219.817 270.045 219.817 271.035H223.817C223.817 270.559 223.906 270.215 224.032 269.955L220.436 268.203ZM219.817 271.035C219.817 272.141 219.966 273.224 220.396 274.158L224.028 272.482C223.932 272.273 223.817 271.832 223.817 271.035H219.817ZM220.405 274.176C220.855 275.125 221.574 275.879 222.545 276.337L224.253 272.72C224.169 272.68 224.097 272.627 224.02 272.464L220.405 274.176ZM222.545 276.337C223.421 276.75 224.403 276.902 225.398 276.902V272.902C224.782 272.902 224.432 272.804 224.253 272.72L222.545 276.337ZM225.398 276.902C226.7 276.902 227.933 276.597 229.03 275.93L226.952 272.512C226.556 272.753 226.06 272.902 225.398 272.902V276.902ZM229.03 275.93C230.001 275.339 230.817 274.585 231.414 273.647L228.04 271.499C227.816 271.85 227.475 272.194 226.952 272.512L229.03 275.93ZM231.397 273.673C231.968 272.806 232.376 271.786 232.318 270.666L228.323 270.876C228.323 270.878 228.324 270.888 228.321 270.909C228.317 270.93 228.31 270.964 228.294 271.013C228.261 271.114 228.193 271.266 228.057 271.472L231.397 273.673ZM228.51 271.622L229.367 273.445L232.987 271.744L232.13 269.92L228.51 271.622ZM229.188 272.391C229.158 272.676 229.053 273.074 228.802 273.599L232.41 275.325C232.803 274.503 233.079 273.656 233.167 272.799L229.188 272.391ZM228.794 273.617C228.581 274.072 228.268 274.545 227.826 275.032L230.793 277.716C231.465 276.973 232.015 276.172 232.418 275.308L228.794 273.617ZM227.843 275.014C227.45 275.438 226.978 275.799 226.41 276.093L228.254 279.643C229.21 279.147 230.056 278.511 230.776 277.734L227.843 275.014ZM226.424 276.086C225.99 276.308 225.465 276.439 224.805 276.439V280.439C226.021 280.439 227.18 280.19 228.24 279.65L226.424 276.086ZM224.805 276.439C223.686 276.439 222.797 276.226 222.084 275.865L220.275 279.432C221.642 280.125 223.171 280.439 224.805 280.439V276.439ZM222.094 275.87C221.426 275.526 220.915 275.033 220.532 274.346L217.038 276.293C217.797 277.656 218.882 278.716 220.265 279.427L222.094 275.87ZM220.532 274.346C220.167 273.691 219.928 272.781 219.928 271.518H215.928C215.928 273.273 216.26 274.897 217.038 276.293L220.532 274.346ZM219.928 271.518C219.928 270.611 220.084 269.816 220.372 269.111L216.67 267.597C216.167 268.826 215.928 270.14 215.928 271.518H219.928ZM220.372 269.111C220.654 268.422 221.066 267.835 221.621 267.332L218.936 264.367C217.939 265.27 217.179 266.352 216.67 267.597L220.372 269.111ZM221.637 267.318C222.174 266.821 222.891 266.395 223.841 266.074L222.562 262.284C221.168 262.755 219.936 263.442 218.921 264.381L221.637 267.318ZM223.834 266.077C224.774 265.763 225.923 265.586 227.31 265.586V261.586C225.592 261.586 224.002 261.804 222.569 262.282L223.834 266.077ZM227.31 265.586H230.606V261.586H227.31V265.586Z" fill="#0D6EFD" mask="url(#path-13-inside-1_4_80)"/>
</svg>
